<?xml version="1.0" encoding="utf-8" standalone="no"?>
<!DOCTYPE svg PUBLIC "-//W3C//DTD SVG 1.1//EN"
  "http://www.w3.org/Graphics/SVG/1.1/DTD/svg11.dtd">
<!-- Created with matplotlib (https://matplotlib.org/) -->
<svg height="345.6pt" version="1.1" viewBox="0 0 460.8 345.6" width="460.8pt" xmlns="http://www.w3.org/2000/svg" xmlns:xlink="http://www.w3.org/1999/xlink">
 <defs>
  <style type="text/css">
*{stroke-linecap:butt;stroke-linejoin:round;}
  </style>
 </defs>
 <g id="figure_1">
  <g id="patch_1">
   <path d="M 0 345.6 
L 460.8 345.6 
L 460.8 0 
L 0 0 
z
" style="fill:#ffffff;"/>
  </g>
  <g id="axes_1">
   <g id="patch_2">
    <path d="M 57.6 307.584 
L 414.72 307.584 
L 414.72 41.472 
L 57.6 41.472 
z
" style="fill:#ffffff;"/>
   </g>
   <g id="matplotlib.axis_1">
    <g id="xtick_1">
     <g id="line2d_1">
      <defs>
       <path d="M 0 0 
L 0 3.5 
" id="m78085df4c3" style="stroke:#000000;stroke-width:0.8;"/>
      </defs>
      <g>
       <use style="stroke:#000000;stroke-width:0.8;" x="73.832727" xlink:href="#m78085df4c3" y="307.584"/>
      </g>
     </g>
     <g id="text_1">
      <!-- 0 -->
      <defs>
       <path d="M 31.78125 66.40625 
Q 24.171875 66.40625 20.328125 58.90625 
Q 16.5 51.421875 16.5 36.375 
Q 16.5 21.390625 20.328125 13.890625 
Q 24.171875 6.390625 31.78125 6.390625 
Q 39.453125 6.390625 43.28125 13.890625 
Q 47.125 21.390625 47.125 36.375 
Q 47.125 51.421875 43.28125 58.90625 
Q 39.453125 66.40625 31.78125 66.40625 
z
M 31.78125 74.21875 
Q 44.046875 74.21875 50.515625 64.515625 
Q 56.984375 54.828125 56.984375 36.375 
Q 56.984375 17.96875 50.515625 8.265625 
Q 44.046875 -1.421875 31.78125 -1.421875 
Q 19.53125 -1.421875 13.0625 8.265625 
Q 6.59375 17.96875 6.59375 36.375 
Q 6.59375 54.828125 13.0625 64.515625 
Q 19.53125 74.21875 31.78125 74.21875 
z
" id="DejaVuSans-48"/>
      </defs>
      <g transform="translate(70.651477 322.182437)scale(0.1 -0.1)">
       <use xlink:href="#DejaVuSans-48"/>
      </g>
     </g>
    </g>
    <g id="xtick_2">
     <g id="line2d_2">
      <g>
       <use style="stroke:#000000;stroke-width:0.8;" x="126.07839" xlink:href="#m78085df4c3" y="307.584"/>
      </g>
     </g>
     <g id="text_2">
      <!-- 500 -->
      <defs>
       <path d="M 10.796875 72.90625 
L 49.515625 72.90625 
L 49.515625 64.59375 
L 19.828125 64.59375 
L 19.828125 46.734375 
Q 21.96875 47.46875 24.109375 47.828125 
Q 26.265625 48.1875 28.421875 48.1875 
Q 40.625 48.1875 47.75 41.5 
Q 54.890625 34.8125 54.890625 23.390625 
Q 54.890625 11.625 47.5625 5.09375 
Q 40.234375 -1.421875 26.90625 -1.421875 
Q 22.3125 -1.421875 17.546875 -0.640625 
Q 12.796875 0.140625 7.71875 1.703125 
L 7.71875 11.625 
Q 12.109375 9.234375 16.796875 8.0625 
Q 21.484375 6.890625 26.703125 6.890625 
Q 35.15625 6.890625 40.078125 11.328125 
Q 45.015625 15.765625 45.015625 23.390625 
Q 45.015625 31 40.078125 35.4375 
Q 35.15625 39.890625 26.703125 39.890625 
Q 22.75 39.890625 18.8125 39.015625 
Q 14.890625 38.140625 10.796875 36.28125 
z
" id="DejaVuSans-53"/>
      </defs>
      <g transform="translate(116.53464 322.182437)scale(0.1 -0.1)">
       <use xlink:href="#DejaVuSans-53"/>
       <use x="63.623047" xlink:href="#DejaVuSans-48"/>
       <use x="127.246094" xlink:href="#DejaVuSans-48"/>
      </g>
     </g>
    </g>
    <g id="xtick_3">
     <g id="line2d_3">
      <g>
       <use style="stroke:#000000;stroke-width:0.8;" x="178.324052" xlink:href="#m78085df4c3" y="307.584"/>
      </g>
     </g>
     <g id="text_3">
      <!-- 1000 -->
      <defs>
       <path d="M 12.40625 8.296875 
L 28.515625 8.296875 
L 28.515625 63.921875 
L 10.984375 60.40625 
L 10.984375 69.390625 
L 28.421875 72.90625 
L 38.28125 72.90625 
L 38.28125 8.296875 
L 54.390625 8.296875 
L 54.390625 0 
L 12.40625 0 
z
" id="DejaVuSans-49"/>
      </defs>
      <g transform="translate(165.599052 322.182437)scale(0.1 -0.1)">
       <use xlink:href="#DejaVuSans-49"/>
       <use x="63.623047" xlink:href="#DejaVuSans-48"/>
       <use x="127.246094" xlink:href="#DejaVuSans-48"/>
       <use x="190.869141" xlink:href="#DejaVuSans-48"/>
      </g>
     </g>
    </g>
    <g id="xtick_4">
     <g id="line2d_4">
      <g>
       <use style="stroke:#000000;stroke-width:0.8;" x="230.569714" xlink:href="#m78085df4c3" y="307.584"/>
      </g>
     </g>
     <g id="text_4">
      <!-- 1500 -->
      <g transform="translate(217.844714 322.182437)scale(0.1 -0.1)">
       <use xlink:href="#DejaVuSans-49"/>
       <use x="63.623047" xlink:href="#DejaVuSans-53"/>
       <use x="127.246094" xlink:href="#DejaVuSans-48"/>
       <use x="190.869141" xlink:href="#DejaVuSans-48"/>
      </g>
     </g>
    </g>
    <g id="xtick_5">
     <g id="line2d_5">
      <g>
       <use style="stroke:#000000;stroke-width:0.8;" x="282.815376" xlink:href="#m78085df4c3" y="307.584"/>
      </g>
     </g>
     <g id="text_5">
      <!-- 2000 -->
      <defs>
       <path d="M 19.1875 8.296875 
L 53.609375 8.296875 
L 53.609375 0 
L 7.328125 0 
L 7.328125 8.296875 
Q 12.9375 14.109375 22.625 23.890625 
Q 32.328125 33.6875 34.8125 36.53125 
Q 39.546875 41.84375 41.421875 45.53125 
Q 43.3125 49.21875 43.3125 52.78125 
Q 43.3125 58.59375 39.234375 62.25 
Q 35.15625 65.921875 28.609375 65.921875 
Q 23.96875 65.921875 18.8125 64.3125 
Q 13.671875 62.703125 7.8125 59.421875 
L 7.8125 69.390625 
Q 13.765625 71.78125 18.9375 73 
Q 24.125 74.21875 28.421875 74.21875 
Q 39.75 74.21875 46.484375 68.546875 
Q 53.21875 62.890625 53.21875 53.421875 
Q 53.21875 48.921875 51.53125 44.890625 
Q 49.859375 40.875 45.40625 35.40625 
Q 44.1875 33.984375 37.640625 27.21875 
Q 31.109375 20.453125 19.1875 8.296875 
z
" id="DejaVuSans-50"/>
      </defs>
      <g transform="translate(270.090376 322.182437)scale(0.1 -0.1)">
       <use xlink:href="#DejaVuSans-50"/>
       <use x="63.623047" xlink:href="#DejaVuSans-48"/>
       <use x="127.246094" xlink:href="#DejaVuSans-48"/>
       <use x="190.869141" xlink:href="#DejaVuSans-48"/>
      </g>
     </g>
    </g>
    <g id="xtick_6">
     <g id="line2d_6">
      <g>
       <use style="stroke:#000000;stroke-width:0.8;" x="335.061039" xlink:href="#m78085df4c3" y="307.584"/>
      </g>
     </g>
     <g id="text_6">
      <!-- 2500 -->
      <g transform="translate(322.336039 322.182437)scale(0.1 -0.1)">
       <use xlink:href="#DejaVuSans-50"/>
       <use x="63.623047" xlink:href="#DejaVuSans-53"/>
       <use x="127.246094" xlink:href="#DejaVuSans-48"/>
       <use x="190.869141" xlink:href="#DejaVuSans-48"/>
      </g>
     </g>
    </g>
    <g id="xtick_7">
     <g id="line2d_7">
      <g>
       <use style="stroke:#000000;stroke-width:0.8;" x="387.306701" xlink:href="#m78085df4c3" y="307.584"/>
      </g>
     </g>
     <g id="text_7">
      <!-- 3000 -->
      <defs>
       <path d="M 40.578125 39.3125 
Q 47.65625 37.796875 51.625 33 
Q 55.609375 28.21875 55.609375 21.1875 
Q 55.609375 10.40625 48.1875 4.484375 
Q 40.765625 -1.421875 27.09375 -1.421875 
Q 22.515625 -1.421875 17.65625 -0.515625 
Q 12.796875 0.390625 7.625 2.203125 
L 7.625 11.71875 
Q 11.71875 9.328125 16.59375 8.109375 
Q 21.484375 6.890625 26.8125 6.890625 
Q 36.078125 6.890625 40.9375 10.546875 
Q 45.796875 14.203125 45.796875 21.1875 
Q 45.796875 27.640625 41.28125 31.265625 
Q 36.765625 34.90625 28.71875 34.90625 
L 20.21875 34.90625 
L 20.21875 43.015625 
L 29.109375 43.015625 
Q 36.375 43.015625 40.234375 45.921875 
Q 44.09375 48.828125 44.09375 54.296875 
Q 44.09375 59.90625 40.109375 62.90625 
Q 36.140625 65.921875 28.71875 65.921875 
Q 24.65625 65.921875 20.015625 65.03125 
Q 15.375 64.15625 9.8125 62.3125 
L 9.8125 71.09375 
Q 15.4375 72.65625 20.34375 73.4375 
Q 25.25 74.21875 29.59375 74.21875 
Q 40.828125 74.21875 47.359375 69.109375 
Q 53.90625 64.015625 53.90625 55.328125 
Q 53.90625 49.265625 50.4375 45.09375 
Q 46.96875 40.921875 40.578125 39.3125 
z
" id="DejaVuSans-51"/>
      </defs>
      <g transform="translate(374.581701 322.182437)scale(0.1 -0.1)">
       <use xlink:href="#DejaVuSans-51"/>
       <use x="63.623047" xlink:href="#DejaVuSans-48"/>
       <use x="127.246094" xlink:href="#DejaVuSans-48"/>
       <use x="190.869141" xlink:href="#DejaVuSans-48"/>
      </g>
     </g>
    </g>
    <g id="text_8">
     <!-- Days -->
     <defs>
      <path d="M 19.671875 64.796875 
L 19.671875 8.109375 
L 31.59375 8.109375 
Q 46.6875 8.109375 53.6875 14.9375 
Q 60.6875 21.78125 60.6875 36.53125 
Q 60.6875 51.171875 53.6875 57.984375 
Q 46.6875 64.796875 31.59375 64.796875 
z
M 9.8125 72.90625 
L 30.078125 72.90625 
Q 51.265625 72.90625 61.171875 64.09375 
Q 71.09375 55.28125 71.09375 36.53125 
Q 71.09375 17.671875 61.125 8.828125 
Q 51.171875 0 30.078125 0 
L 9.8125 0 
z
" id="DejaVuSans-68"/>
      <path d="M 34.28125 27.484375 
Q 23.390625 27.484375 19.1875 25 
Q 14.984375 22.515625 14.984375 16.5 
Q 14.984375 11.71875 18.140625 8.90625 
Q 21.296875 6.109375 26.703125 6.109375 
Q 34.1875 6.109375 38.703125 11.40625 
Q 43.21875 16.703125 43.21875 25.484375 
L 43.21875 27.484375 
z
M 52.203125 31.203125 
L 52.203125 0 
L 43.21875 0 
L 43.21875 8.296875 
Q 40.140625 3.328125 35.546875 0.953125 
Q 30.953125 -1.421875 24.3125 -1.421875 
Q 15.921875 -1.421875 10.953125 3.296875 
Q 6 8.015625 6 15.921875 
Q 6 25.140625 12.171875 29.828125 
Q 18.359375 34.515625 30.609375 34.515625 
L 43.21875 34.515625 
L 43.21875 35.40625 
Q 43.21875 41.609375 39.140625 45 
Q 35.0625 48.390625 27.6875 48.390625 
Q 23 48.390625 18.546875 47.265625 
Q 14.109375 46.140625 10.015625 43.890625 
L 10.015625 52.203125 
Q 14.9375 54.109375 19.578125 55.046875 
Q 24.21875 56 28.609375 56 
Q 40.484375 56 46.34375 49.84375 
Q 52.203125 43.703125 52.203125 31.203125 
z
" id="DejaVuSans-97"/>
      <path d="M 32.171875 -5.078125 
Q 28.375 -14.84375 24.75 -17.8125 
Q 21.140625 -20.796875 15.09375 -20.796875 
L 7.90625 -20.796875 
L 7.90625 -13.28125 
L 13.1875 -13.28125 
Q 16.890625 -13.28125 18.9375 -11.515625 
Q 21 -9.765625 23.484375 -3.21875 
L 25.09375 0.875 
L 2.984375 54.6875 
L 12.5 54.6875 
L 29.59375 11.921875 
L 46.6875 54.6875 
L 56.203125 54.6875 
z
" id="DejaVuSans-121"/>
      <path d="M 44.28125 53.078125 
L 44.28125 44.578125 
Q 40.484375 46.53125 36.375 47.5 
Q 32.28125 48.484375 27.875 48.484375 
Q 21.1875 48.484375 17.84375 46.4375 
Q 14.5 44.390625 14.5 40.28125 
Q 14.5 37.15625 16.890625 35.375 
Q 19.28125 33.59375 26.515625 31.984375 
L 29.59375 31.296875 
Q 39.15625 29.25 43.1875 25.515625 
Q 47.21875 21.78125 47.21875 15.09375 
Q 47.21875 7.46875 41.1875 3.015625 
Q 35.15625 -1.421875 24.609375 -1.421875 
Q 20.21875 -1.421875 15.453125 -0.5625 
Q 10.6875 0.296875 5.421875 2 
L 5.421875 11.28125 
Q 10.40625 8.6875 15.234375 7.390625 
Q 20.0625 6.109375 24.8125 6.109375 
Q 31.15625 6.109375 34.5625 8.28125 
Q 37.984375 10.453125 37.984375 14.40625 
Q 37.984375 18.0625 35.515625 20.015625 
Q 33.0625 21.96875 24.703125 23.78125 
L 21.578125 24.515625 
Q 13.234375 26.265625 9.515625 29.90625 
Q 5.8125 33.546875 5.8125 39.890625 
Q 5.8125 47.609375 11.28125 51.796875 
Q 16.75 56 26.8125 56 
Q 31.78125 56 36.171875 55.265625 
Q 40.578125 54.546875 44.28125 53.078125 
z
" id="DejaVuSans-115"/>
     </defs>
     <g transform="translate(223.681875 335.860562)scale(0.1 -0.1)">
      <use xlink:href="#DejaVuSans-68"/>
      <use x="77.001953" xlink:href="#DejaVuSans-97"/>
      <use x="138.28125" xlink:href="#DejaVuSans-121"/>
      <use x="197.460938" xlink:href="#DejaVuSans-115"/>
     </g>
    </g>
   </g>
   <g id="matplotlib.axis_2">
    <g id="ytick_1">
     <g id="line2d_8">
      <defs>
       <path d="M 0 0 
L -3.5 0 
" id="m3e9e0c4e1d" style="stroke:#000000;stroke-width:0.8;"/>
      </defs>
      <g>
       <use style="stroke:#000000;stroke-width:0.8;" x="57.6" xlink:href="#m3e9e0c4e1d" y="295.488"/>
      </g>
     </g>
     <g id="text_9">
      <!-- 0.0 -->
      <defs>
       <path d="M 10.6875 12.40625 
L 21 12.40625 
L 21 0 
L 10.6875 0 
z
" id="DejaVuSans-46"/>
      </defs>
      <g transform="translate(34.696875 299.287219)scale(0.1 -0.1)">
       <use xlink:href="#DejaVuSans-48"/>
       <use x="63.623047" xlink:href="#DejaVuSans-46"/>
       <use x="95.410156" xlink:href="#DejaVuSans-48"/>
      </g>
     </g>
    </g>
    <g id="ytick_2">
     <g id="line2d_9">
      <g>
       <use style="stroke:#000000;stroke-width:0.8;" x="57.6" xlink:href="#m3e9e0c4e1d" y="255.168"/>
      </g>
     </g>
     <g id="text_10">
      <!-- 0.2 -->
      <g transform="translate(34.696875 258.967219)scale(0.1 -0.1)">
       <use xlink:href="#DejaVuSans-48"/>
       <use x="63.623047" xlink:href="#DejaVuSans-46"/>
       <use x="95.410156" xlink:href="#DejaVuSans-50"/>
      </g>
     </g>
    </g>
    <g id="ytick_3">
     <g id="line2d_10">
      <g>
       <use style="stroke:#000000;stroke-width:0.8;" x="57.6" xlink:href="#m3e9e0c4e1d" y="214.848"/>
      </g>
     </g>
     <g id="text_11">
      <!-- 0.4 -->
      <defs>
       <path d="M 37.796875 64.3125 
L 12.890625 25.390625 
L 37.796875 25.390625 
z
M 35.203125 72.90625 
L 47.609375 72.90625 
L 47.609375 25.390625 
L 58.015625 25.390625 
L 58.015625 17.1875 
L 47.609375 17.1875 
L 47.609375 0 
L 37.796875 0 
L 37.796875 17.1875 
L 4.890625 17.1875 
L 4.890625 26.703125 
z
" id="DejaVuSans-52"/>
      </defs>
      <g transform="translate(34.696875 218.647219)scale(0.1 -0.1)">
       <use xlink:href="#DejaVuSans-48"/>
       <use x="63.623047" xlink:href="#DejaVuSans-46"/>
       <use x="95.410156" xlink:href="#DejaVuSans-52"/>
      </g>
     </g>
    </g>
    <g id="ytick_4">
     <g id="line2d_11">
      <g>
       <use style="stroke:#000000;stroke-width:0.8;" x="57.6" xlink:href="#m3e9e0c4e1d" y="174.528"/>
      </g>
     </g>
     <g id="text_12">
      <!-- 0.6 -->
      <defs>
       <path d="M 33.015625 40.375 
Q 26.375 40.375 22.484375 35.828125 
Q 18.609375 31.296875 18.609375 23.390625 
Q 18.609375 15.53125 22.484375 10.953125 
Q 26.375 6.390625 33.015625 6.390625 
Q 39.65625 6.390625 43.53125 10.953125 
Q 47.40625 15.53125 47.40625 23.390625 
Q 47.40625 31.296875 43.53125 35.828125 
Q 39.65625 40.375 33.015625 40.375 
z
M 52.59375 71.296875 
L 52.59375 62.3125 
Q 48.875 64.0625 45.09375 64.984375 
Q 41.3125 65.921875 37.59375 65.921875 
Q 27.828125 65.921875 22.671875 59.328125 
Q 17.53125 52.734375 16.796875 39.40625 
Q 19.671875 43.65625 24.015625 45.921875 
Q 28.375 48.1875 33.59375 48.1875 
Q 44.578125 48.1875 50.953125 41.515625 
Q 57.328125 34.859375 57.328125 23.390625 
Q 57.328125 12.15625 50.6875 5.359375 
Q 44.046875 -1.421875 33.015625 -1.421875 
Q 20.359375 -1.421875 13.671875 8.265625 
Q 6.984375 17.96875 6.984375 36.375 
Q 6.984375 53.65625 15.1875 63.9375 
Q 23.390625 74.21875 37.203125 74.21875 
Q 40.921875 74.21875 44.703125 73.484375 
Q 48.484375 72.75 52.59375 71.296875 
z
" id="DejaVuSans-54"/>
      </defs>
      <g transform="translate(34.696875 178.327219)scale(0.1 -0.1)">
       <use xlink:href="#DejaVuSans-48"/>
       <use x="63.623047" xlink:href="#DejaVuSans-46"/>
       <use x="95.410156" xlink:href="#DejaVuSans-54"/>
      </g>
     </g>
    </g>
    <g id="ytick_5">
     <g id="line2d_12">
      <g>
       <use style="stroke:#000000;stroke-width:0.8;" x="57.6" xlink:href="#m3e9e0c4e1d" y="134.208"/>
      </g>
     </g>
     <g id="text_13">
      <!-- 0.8 -->
      <defs>
       <path d="M 31.78125 34.625 
Q 24.75 34.625 20.71875 30.859375 
Q 16.703125 27.09375 16.703125 20.515625 
Q 16.703125 13.921875 20.71875 10.15625 
Q 24.75 6.390625 31.78125 6.390625 
Q 38.8125 6.390625 42.859375 10.171875 
Q 46.921875 13.96875 46.921875 20.515625 
Q 46.921875 27.09375 42.890625 30.859375 
Q 38.875 34.625 31.78125 34.625 
z
M 21.921875 38.8125 
Q 15.578125 40.375 12.03125 44.71875 
Q 8.5 49.078125 8.5 55.328125 
Q 8.5 64.0625 14.71875 69.140625 
Q 20.953125 74.21875 31.78125 74.21875 
Q 42.671875 74.21875 48.875 69.140625 
Q 55.078125 64.0625 55.078125 55.328125 
Q 55.078125 49.078125 51.53125 44.71875 
Q 48 40.375 41.703125 38.8125 
Q 48.828125 37.15625 52.796875 32.3125 
Q 56.78125 27.484375 56.78125 20.515625 
Q 56.78125 9.90625 50.3125 4.234375 
Q 43.84375 -1.421875 31.78125 -1.421875 
Q 19.734375 -1.421875 13.25 4.234375 
Q 6.78125 9.90625 6.78125 20.515625 
Q 6.78125 27.484375 10.78125 32.3125 
Q 14.796875 37.15625 21.921875 38.8125 
z
M 18.3125 54.390625 
Q 18.3125 48.734375 21.84375 45.5625 
Q 25.390625 42.390625 31.78125 42.390625 
Q 38.140625 42.390625 41.71875 45.5625 
Q 45.3125 48.734375 45.3125 54.390625 
Q 45.3125 60.0625 41.71875 63.234375 
Q 38.140625 66.40625 31.78125 66.40625 
Q 25.390625 66.40625 21.84375 63.234375 
Q 18.3125 60.0625 18.3125 54.390625 
z
" id="DejaVuSans-56"/>
      </defs>
      <g transform="translate(34.696875 138.007219)scale(0.1 -0.1)">
       <use xlink:href="#DejaVuSans-48"/>
       <use x="63.623047" xlink:href="#DejaVuSans-46"/>
       <use x="95.410156" xlink:href="#DejaVuSans-56"/>
      </g>
     </g>
    </g>
    <g id="ytick_6">
     <g id="line2d_13">
      <g>
       <use style="stroke:#000000;stroke-width:0.8;" x="57.6" xlink:href="#m3e9e0c4e1d" y="93.888"/>
      </g>
     </g>
     <g id="text_14">
      <!-- 1.0 -->
      <g transform="translate(34.696875 97.687219)scale(0.1 -0.1)">
       <use xlink:href="#DejaVuSans-49"/>
       <use x="63.623047" xlink:href="#DejaVuSans-46"/>
       <use x="95.410156" xlink:href="#DejaVuSans-48"/>
      </g>
     </g>
    </g>
    <g id="ytick_7">
     <g id="line2d_14">
      <g>
       <use style="stroke:#000000;stroke-width:0.8;" x="57.6" xlink:href="#m3e9e0c4e1d" y="53.568"/>
      </g>
     </g>
     <g id="text_15">
      <!-- 1.2 -->
      <g transform="translate(34.696875 57.367219)scale(0.1 -0.1)">
       <use xlink:href="#DejaVuSans-49"/>
       <use x="63.623047" xlink:href="#DejaVuSans-46"/>
       <use x="95.410156" xlink:href="#DejaVuSans-50"/>
      </g>
     </g>
    </g>
    <g id="text_16">
     <!-- Percentage of population infected -->
     <defs>
      <path d="M 19.671875 64.796875 
L 19.671875 37.40625 
L 32.078125 37.40625 
Q 38.96875 37.40625 42.71875 40.96875 
Q 46.484375 44.53125 46.484375 51.125 
Q 46.484375 57.671875 42.71875 61.234375 
Q 38.96875 64.796875 32.078125 64.796875 
z
M 9.8125 72.90625 
L 32.078125 72.90625 
Q 44.34375 72.90625 50.609375 67.359375 
Q 56.890625 61.8125 56.890625 51.125 
Q 56.890625 40.328125 50.609375 34.8125 
Q 44.34375 29.296875 32.078125 29.296875 
L 19.671875 29.296875 
L 19.671875 0 
L 9.8125 0 
z
" id="DejaVuSans-80"/>
      <path d="M 56.203125 29.59375 
L 56.203125 25.203125 
L 14.890625 25.203125 
Q 15.484375 15.921875 20.484375 11.0625 
Q 25.484375 6.203125 34.421875 6.203125 
Q 39.59375 6.203125 44.453125 7.46875 
Q 49.3125 8.734375 54.109375 11.28125 
L 54.109375 2.78125 
Q 49.265625 0.734375 44.1875 -0.34375 
Q 39.109375 -1.421875 33.890625 -1.421875 
Q 20.796875 -1.421875 13.15625 6.1875 
Q 5.515625 13.8125 5.515625 26.8125 
Q 5.515625 40.234375 12.765625 48.109375 
Q 20.015625 56 32.328125 56 
Q 43.359375 56 49.78125 48.890625 
Q 56.203125 41.796875 56.203125 29.59375 
z
M 47.21875 32.234375 
Q 47.125 39.59375 43.09375 43.984375 
Q 39.0625 48.390625 32.421875 48.390625 
Q 24.90625 48.390625 20.390625 44.140625 
Q 15.875 39.890625 15.1875 32.171875 
z
" id="DejaVuSans-101"/>
      <path d="M 41.109375 46.296875 
Q 39.59375 47.171875 37.8125 47.578125 
Q 36.03125 48 33.890625 48 
Q 26.265625 48 22.1875 43.046875 
Q 18.109375 38.09375 18.109375 28.8125 
L 18.109375 0 
L 9.078125 0 
L 9.078125 54.6875 
L 18.109375 54.6875 
L 18.109375 46.1875 
Q 20.953125 51.171875 25.484375 53.578125 
Q 30.03125 56 36.53125 56 
Q 37.453125 56 38.578125 55.875 
Q 39.703125 55.765625 41.0625 55.515625 
z
" id="DejaVuSans-114"/>
      <path d="M 48.78125 52.59375 
L 48.78125 44.1875 
Q 44.96875 46.296875 41.140625 47.34375 
Q 37.3125 48.390625 33.40625 48.390625 
Q 24.65625 48.390625 19.8125 42.84375 
Q 14.984375 37.3125 14.984375 27.296875 
Q 14.984375 17.28125 19.8125 11.734375 
Q 24.65625 6.203125 33.40625 6.203125 
Q 37.3125 6.203125 41.140625 7.25 
Q 44.96875 8.296875 48.78125 10.40625 
L 48.78125 2.09375 
Q 45.015625 0.34375 40.984375 -0.53125 
Q 36.96875 -1.421875 32.421875 -1.421875 
Q 20.0625 -1.421875 12.78125 6.34375 
Q 5.515625 14.109375 5.515625 27.296875 
Q 5.515625 40.671875 12.859375 48.328125 
Q 20.21875 56 33.015625 56 
Q 37.15625 56 41.109375 55.140625 
Q 45.0625 54.296875 48.78125 52.59375 
z
" id="DejaVuSans-99"/>
      <path d="M 54.890625 33.015625 
L 54.890625 0 
L 45.90625 0 
L 45.90625 32.71875 
Q 45.90625 40.484375 42.875 44.328125 
Q 39.84375 48.1875 33.796875 48.1875 
Q 26.515625 48.1875 22.3125 43.546875 
Q 18.109375 38.921875 18.109375 30.90625 
L 18.109375 0 
L 9.078125 0 
L 9.078125 54.6875 
L 18.109375 54.6875 
L 18.109375 46.1875 
Q 21.34375 51.125 25.703125 53.5625 
Q 30.078125 56 35.796875 56 
Q 45.21875 56 50.046875 50.171875 
Q 54.890625 44.34375 54.890625 33.015625 
z
" id="DejaVuSans-110"/>
      <path d="M 18.3125 70.21875 
L 18.3125 54.6875 
L 36.8125 54.6875 
L 36.8125 47.703125 
L 18.3125 47.703125 
L 18.3125 18.015625 
Q 18.3125 11.328125 20.140625 9.421875 
Q 21.96875 7.515625 27.59375 7.515625 
L 36.8125 7.515625 
L 36.8125 0 
L 27.59375 0 
Q 17.1875 0 13.234375 3.875 
Q 9.28125 7.765625 9.28125 18.015625 
L 9.28125 47.703125 
L 2.6875 47.703125 
L 2.6875 54.6875 
L 9.28125 54.6875 
L 9.28125 70.21875 
z
" id="DejaVuSans-116"/>
      <path d="M 45.40625 27.984375 
Q 45.40625 37.75 41.375 43.109375 
Q 37.359375 48.484375 30.078125 48.484375 
Q 22.859375 48.484375 18.828125 43.109375 
Q 14.796875 37.75 14.796875 27.984375 
Q 14.796875 18.265625 18.828125 12.890625 
Q 22.859375 7.515625 30.078125 7.515625 
Q 37.359375 7.515625 41.375 12.890625 
Q 45.40625 18.265625 45.40625 27.984375 
z
M 54.390625 6.78125 
Q 54.390625 -7.171875 48.1875 -13.984375 
Q 42 -20.796875 29.203125 -20.796875 
Q 24.46875 -20.796875 20.265625 -20.09375 
Q 16.0625 -19.390625 12.109375 -17.921875 
L 12.109375 -9.1875 
Q 16.0625 -11.328125 19.921875 -12.34375 
Q 23.78125 -13.375 27.78125 -13.375 
Q 36.625 -13.375 41.015625 -8.765625 
Q 45.40625 -4.15625 45.40625 5.171875 
L 45.40625 9.625 
Q 42.625 4.78125 38.28125 2.390625 
Q 33.9375 0 27.875 0 
Q 17.828125 0 11.671875 7.65625 
Q 5.515625 15.328125 5.515625 27.984375 
Q 5.515625 40.671875 11.671875 48.328125 
Q 17.828125 56 27.875 56 
Q 33.9375 56 38.28125 53.609375 
Q 42.625 51.21875 45.40625 46.390625 
L 45.40625 54.6875 
L 54.390625 54.6875 
z
" id="DejaVuSans-103"/>
      <path id="DejaVuSans-32"/>
      <path d="M 30.609375 48.390625 
Q 23.390625 48.390625 19.1875 42.75 
Q 14.984375 37.109375 14.984375 27.296875 
Q 14.984375 17.484375 19.15625 11.84375 
Q 23.34375 6.203125 30.609375 6.203125 
Q 37.796875 6.203125 41.984375 11.859375 
Q 46.1875 17.53125 46.1875 27.296875 
Q 46.1875 37.015625 41.984375 42.703125 
Q 37.796875 48.390625 30.609375 48.390625 
z
M 30.609375 56 
Q 42.328125 56 49.015625 48.375 
Q 55.71875 40.765625 55.71875 27.296875 
Q 55.71875 13.875 49.015625 6.21875 
Q 42.328125 -1.421875 30.609375 -1.421875 
Q 18.84375 -1.421875 12.171875 6.21875 
Q 5.515625 13.875 5.515625 27.296875 
Q 5.515625 40.765625 12.171875 48.375 
Q 18.84375 56 30.609375 56 
z
" id="DejaVuSans-111"/>
      <path d="M 37.109375 75.984375 
L 37.109375 68.5 
L 28.515625 68.5 
Q 23.6875 68.5 21.796875 66.546875 
Q 19.921875 64.59375 19.921875 59.515625 
L 19.921875 54.6875 
L 34.71875 54.6875 
L 34.71875 47.703125 
L 19.921875 47.703125 
L 19.921875 0 
L 10.890625 0 
L 10.890625 47.703125 
L 2.296875 47.703125 
L 2.296875 54.6875 
L 10.890625 54.6875 
L 10.890625 58.5 
Q 10.890625 67.625 15.140625 71.796875 
Q 19.390625 75.984375 28.609375 75.984375 
z
" id="DejaVuSans-102"/>
      <path d="M 18.109375 8.203125 
L 18.109375 -20.796875 
L 9.078125 -20.796875 
L 9.078125 54.6875 
L 18.109375 54.6875 
L 18.109375 46.390625 
Q 20.953125 51.265625 25.265625 53.625 
Q 29.59375 56 35.59375 56 
Q 45.5625 56 51.78125 48.09375 
Q 58.015625 40.1875 58.015625 27.296875 
Q 58.015625 14.40625 51.78125 6.484375 
Q 45.5625 -1.421875 35.59375 -1.421875 
Q 29.59375 -1.421875 25.265625 0.953125 
Q 20.953125 3.328125 18.109375 8.203125 
z
M 48.6875 27.296875 
Q 48.6875 37.203125 44.609375 42.84375 
Q 40.53125 48.484375 33.40625 48.484375 
Q 26.265625 48.484375 22.1875 42.84375 
Q 18.109375 37.203125 18.109375 27.296875 
Q 18.109375 17.390625 22.1875 11.75 
Q 26.265625 6.109375 33.40625 6.109375 
Q 40.53125 6.109375 44.609375 11.75 
Q 48.6875 17.390625 48.6875 27.296875 
z
" id="DejaVuSans-112"/>
      <path d="M 8.5 21.578125 
L 8.5 54.6875 
L 17.484375 54.6875 
L 17.484375 21.921875 
Q 17.484375 14.15625 20.5 10.265625 
Q 23.53125 6.390625 29.59375 6.390625 
Q 36.859375 6.390625 41.078125 11.03125 
Q 45.3125 15.671875 45.3125 23.6875 
L 45.3125 54.6875 
L 54.296875 54.6875 
L 54.296875 0 
L 45.3125 0 
L 45.3125 8.40625 
Q 42.046875 3.421875 37.71875 1 
Q 33.40625 -1.421875 27.6875 -1.421875 
Q 18.265625 -1.421875 13.375 4.4375 
Q 8.5 10.296875 8.5 21.578125 
z
M 31.109375 56 
z
" id="DejaVuSans-117"/>
      <path d="M 9.421875 75.984375 
L 18.40625 75.984375 
L 18.40625 0 
L 9.421875 0 
z
" id="DejaVuSans-108"/>
      <path d="M 9.421875 54.6875 
L 18.40625 54.6875 
L 18.40625 0 
L 9.421875 0 
z
M 9.421875 75.984375 
L 18.40625 75.984375 
L 18.40625 64.59375 
L 9.421875 64.59375 
z
" id="DejaVuSans-105"/>
      <path d="M 45.40625 46.390625 
L 45.40625 75.984375 
L 54.390625 75.984375 
L 54.390625 0 
L 45.40625 0 
L 45.40625 8.203125 
Q 42.578125 3.328125 38.25 0.953125 
Q 33.9375 -1.421875 27.875 -1.421875 
Q 17.96875 -1.421875 11.734375 6.484375 
Q 5.515625 14.40625 5.515625 27.296875 
Q 5.515625 40.1875 11.734375 48.09375 
Q 17.96875 56 27.875 56 
Q 33.9375 56 38.25 53.625 
Q 42.578125 51.265625 45.40625 46.390625 
z
M 14.796875 27.296875 
Q 14.796875 17.390625 18.875 11.75 
Q 22.953125 6.109375 30.078125 6.109375 
Q 37.203125 6.109375 41.296875 11.75 
Q 45.40625 17.390625 45.40625 27.296875 
Q 45.40625 37.203125 41.296875 42.84375 
Q 37.203125 48.484375 30.078125 48.484375 
Q 22.953125 48.484375 18.875 42.84375 
Q 14.796875 37.203125 14.796875 27.296875 
z
" id="DejaVuSans-100"/>
     </defs>
     <g transform="translate(28.617187 259.199094)rotate(-90)scale(0.1 -0.1)">
      <use xlink:href="#DejaVuSans-80"/>
      <use x="56.677734" xlink:href="#DejaVuSans-101"/>
      <use x="118.201172" xlink:href="#DejaVuSans-114"/>
      <use x="157.064453" xlink:href="#DejaVuSans-99"/>
      <use x="212.044922" xlink:href="#DejaVuSans-101"/>
      <use x="273.568359" xlink:href="#DejaVuSans-110"/>
      <use x="336.947266" xlink:href="#DejaVuSans-116"/>
      <use x="376.15625" xlink:href="#DejaVuSans-97"/>
      <use x="437.435547" xlink:href="#DejaVuSans-103"/>
      <use x="500.912109" xlink:href="#DejaVuSans-101"/>
      <use x="562.435547" xlink:href="#DejaVuSans-32"/>
      <use x="594.222656" xlink:href="#DejaVuSans-111"/>
      <use x="655.404297" xlink:href="#DejaVuSans-102"/>
      <use x="690.609375" xlink:href="#DejaVuSans-32"/>
      <use x="722.396484" xlink:href="#DejaVuSans-112"/>
      <use x="785.873047" xlink:href="#DejaVuSans-111"/>
      <use x="847.054688" xlink:href="#DejaVuSans-112"/>
      <use x="910.53125" xlink:href="#DejaVuSans-117"/>
      <use x="973.910156" xlink:href="#DejaVuSans-108"/>
      <use x="1001.693359" xlink:href="#DejaVuSans-97"/>
      <use x="1062.972656" xlink:href="#DejaVuSans-116"/>
      <use x="1102.181641" xlink:href="#DejaVuSans-105"/>
      <use x="1129.964844" xlink:href="#DejaVuSans-111"/>
      <use x="1191.146484" xlink:href="#DejaVuSans-110"/>
      <use x="1254.525391" xlink:href="#DejaVuSans-32"/>
      <use x="1286.3125" xlink:href="#DejaVuSans-105"/>
      <use x="1314.095703" xlink:href="#DejaVuSans-110"/>
      <use x="1377.474609" xlink:href="#DejaVuSans-102"/>
      <use x="1412.679688" xlink:href="#DejaVuSans-101"/>
      <use x="1474.203125" xlink:href="#DejaVuSans-99"/>
      <use x="1529.183594" xlink:href="#DejaVuSans-116"/>
      <use x="1568.392578" xlink:href="#DejaVuSans-101"/>
      <use x="1629.916016" xlink:href="#DejaVuSans-100"/>
     </g>
    </g>
   </g>
   <g id="line2d_15">
    <path clip-path="url(#p47c96ca209)" d="M 73.832727 294.912 
L 74.146201 292 
L 74.668658 284.032 
L 75.191114 273.536 
L 75.818062 261.024 
L 76.549502 249.728 
L 76.967467 243.52 
L 77.17645 242.048 
L 77.698906 234.848 
L 78.01238 230.944 
L 78.325854 228.704 
L 79.057294 220.192 
L 79.370767 218.24 
L 79.997715 212.096 
L 80.311189 211.424 
L 81.356103 206.944 
L 81.669577 204.704 
L 82.087542 201.792 
L 82.401016 198.208 
L 82.818981 194.272 
L 83.445929 192.448 
L 83.654912 192.448 
L 83.863894 193.44 
L 84.177368 195.488 
L 84.595334 197.216 
L 84.699825 197.184 
L 85.11779 198.208 
L 85.222282 198.208 
L 85.535756 197.408 
L 86.162704 190.784 
L 86.894143 182.208 
L 87.207617 180.896 
L 87.416599 180.928 
L 87.521091 181.152 
L 87.730073 180.672 
L 87.834565 180.736 
L 88.357021 182.528 
L 88.461513 182.432 
L 88.670495 180.768 
L 89.297443 174.176 
L 89.715409 172.608 
L 89.8199 172.608 
L 90.133374 173.984 
L 90.446848 178.432 
L 90.864813 182.592 
L 91.073796 182.752 
L 91.282778 182.208 
L 91.38727 182.304 
L 91.700744 184.16 
L 91.805235 184.32 
L 91.909726 184.8 
L 92.014218 184.736 
L 92.2232 183.872 
L 92.536674 182.592 
L 92.745657 181.408 
L 93.163622 174.272 
L 93.477096 168.8 
L 93.581588 168.512 
L 93.79057 169.568 
L 94.104044 171.52 
L 94.417518 175.52 
L 94.835484 180.832 
L 95.044466 181.568 
L 95.253449 181.376 
L 95.566923 182.208 
L 95.671414 181.984 
L 95.880397 180.64 
L 96.193871 178.784 
L 96.611836 177.984 
L 96.820819 176.544 
L 97.238784 171.488 
L 97.761241 168.448 
L 98.074715 166.08 
L 98.283697 164.8 
L 98.597171 163.744 
L 98.806154 163.712 
L 98.910645 163.264 
L 99.32861 158.592 
L 99.537593 156.384 
L 99.746576 155.584 
L 99.851067 155.744 
L 99.955558 156.128 
L 100.686998 162.144 
L 101.104963 162.88 
L 101.209454 162.592 
L 101.418437 162.752 
L 101.731911 160.096 
L 102.045385 156.992 
L 102.254368 156 
L 102.46335 155.2 
L 102.776824 152.608 
L 103.194789 148 
L 103.508263 145.28 
L 103.717246 143.968 
L 104.448685 136.832 
L 104.657668 136.032 
L 105.075633 137.408 
L 105.284616 139.008 
L 105.807073 143.296 
L 105.911564 143.456 
L 106.120547 142.272 
L 106.329529 139.232 
L 106.851986 126.848 
L 107.16546 120.576 
L 107.478934 118.88 
L 107.687916 118.24 
L 107.792408 118.272 
L 108.105882 119.2 
L 108.210373 119.2 
L 108.314864 119.456 
L 108.419356 119.136 
L 108.73283 114.048 
L 109.150795 108.512 
L 109.359778 107.456 
L 109.673252 106.784 
L 109.986726 107.584 
L 110.509182 112.864 
L 111.031639 119.808 
L 111.449604 122.88 
L 111.972061 125.6 
L 112.181043 126.208 
L 112.494517 127.648 
L 112.807991 131.392 
L 113.016974 131.392 
L 113.121465 131.744 
L 113.225957 131.008 
L 114.166379 117.184 
L 114.584344 113.568 
L 114.793327 113.984 
L 115.002309 114.048 
L 115.1068 113.664 
L 115.211292 113.792 
L 115.315783 114.208 
L 115.420274 114.112 
L 116.047222 111.584 
L 116.256205 111.456 
L 116.465188 109.952 
L 117.719084 89.6 
L 117.823575 89.28 
L 117.928066 89.664 
L 118.137049 92.128 
L 119.390945 121.888 
L 119.599927 122.688 
L 119.80891 122.176 
L 119.913401 122.176 
L 120.226875 121.408 
L 120.331367 121.44 
L 120.435858 121.184 
L 120.749332 119.072 
L 120.958315 118.176 
L 121.585263 109.472 
L 121.898737 104.096 
L 122.107719 103.52 
L 122.212211 103.552 
L 122.421193 102.752 
L 122.525685 102.848 
L 122.839158 100.768 
L 122.94365 100.8 
L 123.152632 101.568 
L 123.257124 101.856 
L 123.466106 101.6 
L 123.988563 98.272 
L 124.093054 98.4 
L 124.197546 98.432 
L 124.302037 98.624 
L 124.615511 97.664 
L 124.720002 97.664 
L 124.928985 96.992 
L 125.033476 97.088 
L 125.242459 98.56 
L 125.764916 104.864 
L 125.973898 106.112 
L 126.07839 106.08 
L 126.182881 105.632 
L 126.287372 105.888 
L 126.391864 105.76 
L 126.600846 106.272 
L 126.705338 106.112 
L 126.809829 106.048 
L 126.91432 105.6 
L 127.227794 103.68 
L 127.332285 103.296 
L 127.436777 103.584 
L 127.750251 107.328 
L 128.063725 110.592 
L 128.377199 110.816 
L 128.48169 110.752 
L 128.586181 110.88 
L 128.899655 110.464 
L 129.108638 108.928 
L 129.526603 102.848 
L 129.840077 98.432 
L 130.04906 97.376 
L 130.153551 97.568 
L 132.556852 117.824 
L 132.765834 122.24 
L 133.288291 135.296 
L 134.228713 147.424 
L 134.333204 147.296 
L 134.542187 146.816 
L 134.646678 146.784 
L 135.691591 152.352 
L 135.796083 152.384 
L 136.318539 151.52 
L 136.527522 150.848 
L 136.632013 150.752 
L 137.363453 143.104 
L 137.572435 140.992 
L 137.990401 138.08 
L 138.199383 137.792 
L 138.303875 138.368 
L 138.408366 138.304 
L 138.72184 137.856 
L 138.826331 138.016 
L 139.035314 139.264 
L 139.348788 142.08 
L 139.662262 143.904 
L 139.975736 144.416 
L 140.184718 143.04 
L 141.12514 132.512 
L 141.334123 131.808 
L 141.752088 134.304 
L 141.85658 134.016 
L 141.961071 134.24 
L 142.170054 133.6 
L 142.483528 134.624 
L 142.69251 136.256 
L 142.901493 136.768 
L 143.005984 136.704 
L 143.110475 136.768 
L 143.319458 137.504 
L 143.528441 138.88 
L 143.632932 138.816 
L 144.050897 137.664 
L 144.155389 137.792 
L 144.886828 140.896 
L 145.095811 143.296 
L 145.618267 152.032 
L 145.931741 154.304 
L 146.454198 157.696 
L 146.767672 157.952 
L 147.290128 156.48 
L 147.499111 155.104 
L 147.812585 150.4 
L 148.544024 139.136 
L 149.066481 136.352 
L 149.275464 135.808 
L 149.484446 137.952 
L 150.006903 143.936 
L 150.738342 149.248 
L 150.842833 149.344 
L 151.156307 148.768 
L 151.36529 150.112 
L 151.783255 155.264 
L 152.723677 166.176 
L 153.037151 166.976 
L 153.246134 168.576 
L 153.664099 175.52 
L 154.082065 181.792 
L 154.395539 182.688 
L 154.50003 182.4 
L 155.231469 177.088 
L 155.33596 177.472 
L 155.753926 181.504 
L 156.798839 194.368 
L 157.112313 195.488 
L 157.216804 195.776 
L 157.425787 197.76 
L 157.739261 201.28 
L 157.843752 201.28 
L 157.948244 200.992 
L 158.366209 197.76 
L 158.575192 196.352 
L 158.784174 195.424 
L 159.306631 189.536 
L 159.515613 188.64 
L 159.724596 189.344 
L 159.933579 190.528 
L 160.142561 191.104 
L 160.351544 192.384 
L 160.978492 197.952 
L 161.187475 198.592 
L 161.396457 198.976 
L 161.918914 195.264 
L 162.336879 191.136 
L 162.650353 188.864 
L 162.754844 188.768 
L 163.17281 189.632 
L 163.486284 191.936 
L 163.695266 191.36 
L 163.904249 191.552 
L 164.113232 191.36 
L 164.217723 191.072 
L 164.426706 191.84 
L 164.949162 193.856 
L 165.158145 194.368 
L 165.367128 194.176 
L 165.57611 193.504 
L 165.785093 193.6 
L 165.889584 193.888 
L 165.994076 193.824 
L 166.30755 192.928 
L 166.725515 189.6 
L 167.665937 184.992 
L 167.770428 185.184 
L 167.979411 186.496 
L 168.188393 188.992 
L 169.337798 209.056 
L 169.755763 213.088 
L 169.964746 213.824 
L 170.069237 213.728 
L 170.800676 209.984 
L 171.009659 209.376 
L 171.218642 207.84 
L 172.159064 197.408 
L 172.68152 193.856 
L 172.786012 193.824 
L 172.890503 194.144 
L 173.099486 196.416 
L 174.562364 215.552 
L 174.666855 215.776 
L 175.084821 212.768 
L 175.607277 206.752 
L 176.234225 198.304 
L 176.338717 198.144 
L 176.443208 198.272 
L 177.592613 203.36 
L 177.697104 203.264 
L 177.801595 202.944 
L 178.115069 201.408 
L 178.324052 201.056 
L 178.637526 201.856 
L 178.846508 201.856 
L 178.951 201.824 
L 179.055491 201.952 
L 179.264474 201.856 
L 179.577948 199.872 
L 180.309387 193.856 
L 180.413878 193.6 
L 180.51837 193.856 
L 181.040826 198.944 
L 181.3543 202.208 
L 181.876757 203.872 
L 182.190231 203.008 
L 182.294722 202.912 
L 182.608196 201.92 
L 182.817179 202.848 
L 183.130653 206.304 
L 183.548618 209.888 
L 183.966583 213.728 
L 185.324971 227.232 
L 185.638445 228.096 
L 186.05641 226.528 
L 186.265393 225.664 
L 186.578866 224.192 
L 186.787849 224.064 
L 187.101323 223.968 
L 187.310306 224.224 
L 187.519288 224.064 
L 187.62378 224.32 
L 188.041745 227.616 
L 188.355219 229.728 
L 188.668693 231.168 
L 189.400132 235.872 
L 189.609115 237.056 
L 190.340554 241.856 
L 190.654028 241.248 
L 190.967502 239.744 
L 191.176485 239.04 
L 191.385467 238.368 
L 191.489959 238.464 
L 191.698941 238.4 
L 192.116907 240.48 
L 192.534872 242.688 
L 192.848346 244 
L 193.370803 245.824 
L 193.579785 245.888 
L 193.684277 245.952 
L 194.415716 247.872 
L 194.624698 247.744 
L 194.833681 247.872 
L 195.042664 248.16 
L 195.356138 247.872 
L 195.56512 247.104 
L 195.878594 245.248 
L 196.087577 244.928 
L 196.610034 245.728 
L 196.714525 245.824 
L 196.923508 245.408 
L 197.027999 245.504 
L 197.13249 245.664 
L 197.759438 248.384 
L 198.69986 254.016 
L 198.804351 254.144 
L 199.013334 253.664 
L 199.431299 252.64 
L 199.849265 253.472 
L 199.953756 253.44 
L 200.162739 253.152 
L 200.476213 253.152 
L 200.685195 252.224 
L 201.416635 247.68 
L 202.148074 249.984 
L 202.357056 249.184 
L 202.879513 249.12 
L 203.088496 249.728 
L 203.297478 249.088 
L 203.506461 247.68 
L 203.610952 247.712 
L 204.133409 249.696 
L 204.2379 250.304 
L 204.342392 250.24 
L 204.551374 249.984 
L 204.760357 250.656 
L 205.178322 253.536 
L 205.282814 253.664 
L 205.491796 253.152 
L 206.536709 247.296 
L 206.641201 247.232 
L 206.850183 247.712 
L 207.059166 249.248 
L 207.37264 251.488 
L 207.477131 251.616 
L 207.895097 251.232 
L 208.522045 249.312 
L 208.731027 248.544 
L 208.835519 248.64 
L 209.044501 249.312 
L 209.671449 253.248 
L 210.298397 257.856 
L 210.716362 257.952 
L 211.656784 260.128 
L 213.015172 268.576 
L 213.224154 268.768 
L 213.328646 268.736 
L 213.537628 268.96 
L 213.64212 268.864 
L 214.269068 267.136 
L 214.687033 266.496 
L 215.104998 265.664 
L 215.313981 265.472 
L 215.731946 265.632 
L 215.836437 265.632 
L 216.04542 266.4 
L 216.776859 268.512 
L 217.090333 269.216 
L 217.403807 270.208 
L 217.61279 270.048 
L 218.135247 269.536 
L 218.44872 269.536 
L 219.075668 268.16 
L 219.18016 268.192 
L 219.389142 268.736 
L 219.807108 269.696 
L 220.120582 270.24 
L 220.643038 271.904 
L 220.852021 271.392 
L 221.165495 270.56 
L 221.374478 270.72 
L 221.58346 271.296 
L 221.896934 271.328 
L 222.001426 271.456 
L 222.210408 272.512 
L 223.464304 282.816 
L 223.882269 284.064 
L 224.195743 284.256 
L 224.404726 283.904 
L 224.7182 283.072 
L 224.927183 282.976 
L 225.240657 282.912 
L 225.867605 284.032 
L 226.076587 284.448 
L 226.28557 284.576 
L 226.494552 284.384 
L 226.808026 283.456 
L 227.1215 282.4 
L 227.434974 282.112 
L 227.748448 282.848 
L 228.479888 284.704 
L 228.68887 284.352 
L 229.838275 280.768 
L 230.047258 280.512 
L 230.151749 280.544 
L 230.360731 280.992 
L 230.569714 281.28 
L 230.883188 281.792 
L 231.719119 284.16 
L 232.137084 284.384 
L 232.659541 283.264 
L 232.868523 283.2 
L 233.181997 283.488 
L 233.39098 283.232 
L 233.808945 282.496 
L 234.017928 282.336 
L 234.331402 282.144 
L 234.540384 281.888 
L 234.644876 281.888 
L 235.271824 283.712 
L 235.689789 284.544 
L 236.212246 285.184 
L 236.734702 284.992 
L 236.943685 285.344 
L 237.257159 285.856 
L 237.466142 285.856 
L 238.09309 284.736 
L 238.92902 282.368 
L 239.033511 282.336 
L 239.242494 282.656 
L 240.809864 286.88 
L 241.018847 286.496 
L 241.436812 285.312 
L 242.06376 284.48 
L 242.690708 284.032 
L 243.004182 283.424 
L 243.63113 281.088 
L 243.840112 280.704 
L 244.153586 280.608 
L 244.258078 280.608 
L 245.302991 276.672 
L 245.511974 276.544 
L 245.616465 276.544 
L 245.825448 277.024 
L 246.452395 278.848 
L 246.765869 279.232 
L 246.974852 279.424 
L 247.6018 277.824 
L 247.706291 277.856 
L 248.228748 279.232 
L 248.333239 279.264 
L 248.542222 279.744 
L 248.960187 281.472 
L 249.16917 282.24 
L 249.482644 282.592 
L 250.214083 284.896 
L 250.423066 284.8 
L 250.632048 284.608 
L 250.945522 284.288 
L 251.050014 284.192 
L 251.363488 283.168 
L 251.885944 280.96 
L 251.990436 280.928 
L 252.199418 281.28 
L 252.408401 281.888 
L 252.617384 282.08 
L 252.930858 282.944 
L 253.453314 285.12 
L 253.557806 285.024 
L 253.975771 282.976 
L 254.289245 281.824 
L 254.498227 281.536 
L 254.811701 280.768 
L 255.125175 280.928 
L 255.229667 281.024 
L 255.543141 281.632 
L 255.752123 281.664 
L 256.065597 281.952 
L 256.27458 281.792 
L 256.379071 281.664 
L 257.110511 278.784 
L 257.84195 273.664 
L 257.946441 273.664 
L 258.155424 273.504 
L 258.259915 273.504 
L 258.782372 272.736 
L 259.095846 271.712 
L 259.304828 270.784 
L 259.931776 266.688 
L 260.140759 266.176 
L 260.24525 266.208 
L 260.663216 267.936 
L 261.081181 270.272 
L 261.290164 270.784 
L 261.394655 270.72 
L 261.708129 270.24 
L 262.021603 269.216 
L 262.126094 269.248 
L 262.335077 269.088 
L 262.439568 269.216 
L 262.753042 270.784 
L 263.066516 272.928 
L 263.693464 277.12 
L 264.215921 279.424 
L 264.738377 280.192 
L 264.842869 280.16 
L 265.051851 279.904 
L 265.260834 279.808 
L 265.887782 279.328 
L 266.410238 279.584 
L 266.723712 279.872 
L 266.932695 279.808 
L 267.35066 280.512 
L 267.455152 280.544 
L 267.664134 280.16 
L 270.171926 271.104 
L 270.276417 271.104 
L 270.4854 271.712 
L 270.903365 274.624 
L 271.948279 283.584 
L 272.157261 283.872 
L 272.261753 283.904 
L 272.575227 283.52 
L 273.097683 282.208 
L 273.306666 282.528 
L 273.411157 282.4 
L 273.829123 280.64 
L 275.918949 266.24 
L 276.232423 265.984 
L 276.545897 266.272 
L 276.75488 267.232 
L 277.172845 269.76 
L 277.381828 270.336 
L 277.695302 270.176 
L 278.217758 267.744 
L 278.531232 266.368 
L 278.844706 265.632 
L 279.053689 265.216 
L 280.098602 262.24 
L 280.203093 262.208 
L 280.72555 263.2 
L 281.039024 264.096 
L 281.665972 264.448 
L 282.29292 262.656 
L 282.501902 262.144 
L 282.606394 262.048 
L 282.710885 262.144 
L 283.233342 261.792 
L 283.755798 262.336 
L 284.069272 262.528 
L 284.800712 263.552 
L 285.845625 268.48 
L 286.159099 269.888 
L 286.472573 270.432 
L 286.786047 269.952 
L 287.308503 268.48 
L 287.83096 266.752 
L 288.144434 267.008 
L 288.248925 266.944 
L 288.666891 267.552 
L 288.875873 267.84 
L 289.084856 268.256 
L 289.189347 268.256 
L 289.711804 265.92 
L 290.129769 263.648 
L 290.443243 262.72 
L 290.547734 262.784 
L 290.861208 263.328 
L 291.174682 264.736 
L 292.010613 269.952 
L 292.324087 270.112 
L 292.53307 269.76 
L 292.846544 270.176 
L 293.160018 271.072 
L 293.473492 272.192 
L 293.682474 272.48 
L 293.786966 272.576 
L 293.891457 272.48 
L 294.831879 269.28 
L 294.93637 269.152 
L 295.145353 269.664 
L 295.354335 270.752 
L 295.981283 275.68 
L 296.921705 279.36 
L 297.026197 279.456 
L 297.130688 279.296 
L 297.444162 278.56 
L 297.653145 278.4 
L 297.966618 277.952 
L 298.07111 277.92 
L 298.384584 276.96 
L 299.011532 274.528 
L 299.116023 274.496 
L 299.220514 274.624 
L 299.429497 274.56 
L 299.63848 275.168 
L 299.951954 276.576 
L 300.578902 280.704 
L 300.787884 280.832 
L 300.996867 280.576 
L 301.310341 280.032 
L 301.519324 280 
L 301.937289 280.352 
L 302.877711 282.656 
L 303.086693 282.72 
L 303.191185 282.56 
L 303.295676 282.624 
L 303.922624 281.952 
L 304.340589 280.448 
L 304.863046 279.488 
L 305.281011 277.6 
L 305.907959 273.888 
L 306.430416 269.472 
L 306.639398 268.832 
L 307.370838 270.144 
L 307.475329 270.144 
L 307.684312 270.304 
L 307.788803 270.336 
L 307.997786 270.528 
L 308.729225 269.216 
L 309.042699 270.016 
L 309.565156 271.936 
L 309.774138 272.224 
L 309.878629 272.128 
L 309.983121 272.192 
L 310.296595 273.248 
L 310.923543 274.912 
L 311.028034 275.072 
L 311.759473 278.496 
L 311.968456 278.272 
L 312.28193 277.92 
L 312.908878 279.2 
L 313.117861 279.168 
L 313.744808 280.64 
L 313.8493 280.64 
L 314.058282 280.16 
L 314.371756 279.52 
L 314.580739 279.552 
L 314.68523 279.488 
L 315.207687 280.608 
L 315.730144 282.016 
L 316.357092 282.624 
L 316.670566 282.944 
L 316.98404 283.488 
L 318.133444 285.952 
L 318.446918 285.824 
L 318.655901 285.856 
L 319.805305 283.648 
L 320.223271 282.464 
L 320.536745 281.856 
L 320.641236 281.888 
L 321.059201 283.008 
L 321.477167 284 
L 321.79064 284.352 
L 322.104114 284.032 
L 323.35801 280.288 
L 323.566993 279.744 
L 323.880467 279.328 
L 324.507415 278.208 
L 324.716398 278.368 
L 325.134363 279.424 
L 325.761311 282.144 
L 326.074785 283.008 
L 326.179276 283.104 
L 326.388259 282.976 
L 326.701733 283.136 
L 327.015207 283.904 
L 327.433172 285.472 
L 328.164611 289.152 
L 328.582577 289.92 
L 329.000542 290.464 
L 329.940964 291.744 
L 330.46342 292.608 
L 330.776894 292.896 
L 331.090368 292.8 
L 331.299351 292.448 
L 332.135282 290.176 
L 332.76223 287.936 
L 332.971212 287.424 
L 333.702651 284.544 
L 334.225108 283.616 
L 334.329599 283.552 
L 334.643073 284.096 
L 334.852056 284.64 
L 335.270021 286.4 
L 335.687987 287.264 
L 335.896969 287.392 
L 336.105952 287.328 
L 336.314935 287.424 
L 336.628409 287.168 
L 336.7329 287.2 
L 336.941883 287.136 
L 337.150865 287.296 
L 337.568831 287.904 
L 337.777813 288.192 
L 338.509252 290.048 
L 338.718235 290.176 
L 339.031709 290.496 
L 339.345183 290.624 
L 339.554166 290.24 
L 340.181114 288.768 
L 340.494588 288.384 
L 341.121536 287.264 
L 341.748483 286.432 
L 341.957466 286.4 
L 342.27094 286.464 
L 342.479923 286.464 
L 342.793397 286.816 
L 343.106871 287.808 
L 343.524836 288.96 
L 344.151784 289.984 
L 344.256275 290.048 
L 344.465258 289.76 
L 344.883223 288.352 
L 345.301189 287.072 
L 345.614662 286.816 
L 346.24161 286.72 
L 346.555084 286.496 
L 346.659576 286.528 
L 347.077541 286.208 
L 347.286524 286.176 
L 348.122454 284.608 
L 348.226946 284.672 
L 348.331437 284.64 
L 348.644911 284.8 
L 349.062876 284.96 
L 349.271859 284.928 
L 349.37635 284.96 
L 349.585333 284.64 
L 349.898807 283.712 
L 350.525755 281.376 
L 350.839229 281.056 
L 351.152703 280.576 
L 351.257194 280.576 
L 351.466177 280.416 
L 351.570668 280.48 
L 351.779651 280.704 
L 352.197616 280.8 
L 352.51109 281.024 
L 352.824564 280.736 
L 353.242529 279.84 
L 353.556003 279.84 
L 353.764986 280.384 
L 355.018882 285.088 
L 355.227864 284.416 
L 355.854812 280.64 
L 356.168286 280.064 
L 356.377269 279.808 
L 357.004217 279.008 
L 357.2132 279.232 
L 357.422182 279.584 
L 357.631165 279.584 
L 357.840147 279.488 
L 357.944639 279.616 
L 358.258113 280.928 
L 358.676078 282.848 
L 358.989552 282.912 
L 359.303026 283.68 
L 359.512009 284.256 
L 359.720991 284.032 
L 359.929974 283.2 
L 360.243448 281.792 
L 360.765905 280.416 
L 361.18387 279.232 
L 361.392853 279.232 
L 361.601835 279.424 
L 361.810818 279.392 
L 362.0198 278.816 
L 362.333274 276.672 
L 362.960222 272.384 
L 363.900644 266.368 
L 364.31861 263.136 
L 364.632084 261.92 
L 364.841066 262.24 
L 365.050049 262.912 
L 365.781488 266.048 
L 365.885979 265.92 
L 366.094962 266.08 
L 366.408436 266.112 
L 366.512927 266.272 
L 368.811737 276.352 
L 369.543176 277.632 
L 369.752158 277.44 
L 369.961141 276.512 
L 370.274615 275.392 
L 370.483598 275.488 
L 370.901563 275.84 
L 371.006054 275.904 
L 371.215037 275.808 
L 371.528511 276.992 
L 371.737494 277.472 
L 371.946476 277.632 
L 372.25995 277.536 
L 372.468933 277.376 
L 373.095881 278.816 
L 373.722829 279.84 
L 374.245285 282.208 
L 374.872233 283.232 
L 374.976725 283.2 
L 375.185707 283.488 
L 375.499181 283.424 
L 375.603673 283.488 
L 376.126129 285.056 
L 376.96206 287.808 
L 377.693499 286.368 
L 378.320447 284.096 
L 378.52943 283.904 
L 378.633921 283.936 
L 378.842904 283.808 
L 378.947395 283.84 
L 379.156378 284.512 
L 379.887817 287.52 
L 380.201291 288.032 
L 380.305782 288.032 
L 380.619256 287.104 
L 381.141713 284.832 
L 381.350695 284.416 
L 381.559678 284.512 
L 381.873152 285.504 
L 382.5001 287.968 
L 383.022557 289.376 
L 383.231539 289.472 
L 383.440522 289.184 
L 383.858487 287.872 
L 384.694418 285.6 
L 384.903401 285.568 
L 385.007892 285.664 
L 386.261788 289.408 
L 386.575262 290.24 
L 386.993227 290.88 
L 387.20221 290.784 
L 387.933649 289.888 
L 388.142632 289.888 
L 388.456106 289.088 
L 389.083054 287.84 
L 389.710001 286.816 
L 389.814493 286.848 
L 390.023475 287.328 
L 390.650423 289.44 
L 391.277371 291.008 
L 391.590845 291.616 
L 392.008811 292.16 
L 392.217793 292.256 
L 392.426776 292.416 
L 392.949233 291.808 
L 393.471689 291.072 
L 393.785163 291.072 
L 393.889654 291.104 
L 394.203128 291.488 
L 394.516602 291.584 
L 394.934568 291.968 
L 396.606429 294.336 
L 397.337868 294.912 
L 397.860325 295.264 
L 398.382781 295.456 
L 398.487273 295.488 
L 398.487273 295.488 
" style="fill:none;stroke:#1f77b4;stroke-linecap:square;stroke-width:1.5;"/>
   </g>
   <g id="line2d_16">
    <path clip-path="url(#p47c96ca209)" d="M 73.832727 294.912 
L 74.146201 292 
L 74.668658 284.032 
L 75.191114 273.536 
L 75.818062 261.024 
L 76.549502 249.728 
L 76.967467 243.52 
L 77.17645 242.048 
L 77.698906 234.848 
L 78.01238 230.944 
L 78.325854 228.704 
L 79.057294 220.192 
L 79.370767 218.24 
L 79.997715 212.096 
L 80.311189 211.424 
L 81.356103 206.944 
L 81.669577 204.704 
L 82.087542 201.792 
L 82.401016 198.208 
L 82.818981 194.272 
L 83.445929 192.448 
L 83.654912 192.448 
L 83.863894 193.44 
L 84.177368 195.488 
L 84.595334 197.216 
L 84.699825 197.184 
L 85.11779 198.208 
L 85.222282 198.208 
L 85.535756 197.408 
L 86.162704 190.784 
L 86.894143 182.208 
L 87.207617 180.896 
L 87.416599 180.928 
L 87.521091 181.152 
L 87.730073 180.672 
L 87.834565 180.736 
L 88.357021 182.528 
L 88.461513 182.432 
L 88.670495 180.768 
L 89.297443 174.176 
L 89.715409 172.608 
L 89.8199 172.608 
L 90.133374 173.984 
L 90.446848 178.432 
L 90.864813 182.592 
L 91.073796 182.752 
L 91.282778 182.208 
L 91.38727 182.304 
L 91.700744 184.16 
L 91.805235 184.32 
L 91.909726 184.8 
L 92.014218 184.736 
L 92.2232 183.872 
L 92.536674 182.592 
L 92.745657 181.408 
L 93.163622 174.272 
L 93.477096 168.8 
L 93.581588 168.512 
L 93.79057 169.568 
L 94.104044 171.52 
L 94.417518 175.52 
L 94.835484 180.832 
L 95.044466 181.568 
L 95.253449 181.376 
L 95.566923 182.208 
L 95.671414 181.984 
L 95.880397 180.64 
L 96.193871 178.784 
L 96.611836 177.984 
L 96.820819 176.544 
L 97.238784 171.488 
L 97.761241 168.448 
L 98.074715 166.08 
L 98.283697 164.8 
L 98.597171 163.744 
L 98.806154 163.712 
L 98.910645 163.264 
L 99.32861 158.592 
L 99.537593 156.384 
L 99.746576 155.584 
L 99.851067 155.744 
L 99.955558 156.128 
L 100.791489 163.072 
L 100.89598 163.104 
L 101.104963 162.304 
L 101.418437 159.2 
L 102.254368 147.52 
L 102.46335 145.472 
L 103.090298 132.384 
L 104.239703 107.36 
L 104.448685 106.848 
L 105.075633 112.416 
L 105.911564 129.792 
L 106.120547 128.928 
L 106.538512 126.496 
L 106.643003 126.592 
L 106.851986 127.968 
L 107.060968 128.192 
L 107.16546 128.32 
L 107.792408 127.36 
L 108.00139 125.856 
L 108.73283 114.976 
L 108.941812 114.368 
L 109.046304 114.432 
L 109.255286 114.24 
L 109.56876 115.648 
L 109.673252 115.456 
L 109.986726 112.864 
L 110.404691 107.008 
L 110.509182 106.752 
L 110.718165 107.744 
L 110.927147 109.44 
L 111.554095 116.384 
L 111.867569 118.464 
L 112.076552 117.984 
L 112.181043 118.016 
L 112.285535 117.76 
L 112.912483 113.536 
L 113.016974 113.344 
L 113.121465 113.568 
L 113.434939 111.104 
L 113.957396 106.784 
L 114.061887 106.944 
L 114.688835 111.872 
L 115.420274 122.784 
L 116.256205 132.352 
L 116.67417 130.4 
L 117.092136 124.704 
L 117.40561 122.016 
L 117.510101 122.016 
L 117.719084 122.304 
L 118.032558 125.184 
L 118.659506 140.768 
L 118.972979 148.8 
L 119.390945 154.912 
L 119.704419 157.024 
L 119.80891 157.184 
L 119.913401 156.96 
L 120.017893 156.288 
L 120.540349 150.304 
L 120.644841 150.336 
L 120.749332 150.08 
L 121.062806 148.896 
L 121.271789 147.584 
L 121.689754 142.464 
L 122.421193 132.832 
L 122.630176 131.488 
L 122.734667 131.424 
L 122.94365 133.12 
L 123.257124 138.336 
L 124.197546 153.6 
L 124.51102 156.256 
L 124.720002 158.048 
L 125.137968 162.496 
L 125.34695 163.072 
L 125.660424 162.624 
L 125.973898 163.104 
L 126.182881 162.336 
L 126.391864 161.76 
L 126.600846 161.92 
L 126.705338 162.432 
L 127.123303 168.448 
L 127.750251 175.904 
L 127.959233 177.056 
L 128.063725 177.024 
L 128.168216 177.248 
L 128.377199 177.024 
L 129.108638 173.184 
L 129.213129 173.216 
L 129.840077 170.272 
L 130.362534 166.016 
L 130.780499 163.488 
L 130.88499 163.488 
L 131.093973 163.936 
L 131.302956 165.696 
L 131.511938 169.696 
L 132.138886 184.128 
L 132.347869 185.664 
L 132.45236 185.92 
L 132.661343 187.136 
L 132.765834 187.328 
L 132.870326 187.264 
L 132.974817 187.392 
L 133.497274 191.456 
L 133.706256 194.592 
L 134.542187 210.56 
L 134.855661 214.08 
L 135.796083 226.688 
L 136.005065 227.744 
L 136.214048 228.512 
L 136.736505 229.6 
L 136.945487 230.56 
L 137.15447 232.128 
L 137.885909 241.536 
L 138.303875 244.192 
L 138.617349 245.536 
L 138.72184 245.504 
L 138.826331 245.568 
L 139.035314 244.8 
L 139.348788 244.512 
L 139.453279 244.672 
L 139.662262 245.76 
L 139.871244 246.624 
L 140.28921 248.288 
L 141.020649 252.48 
L 141.12514 252.512 
L 141.438614 252.864 
L 141.85658 252.896 
L 142.274545 252.32 
L 142.483528 252.416 
L 142.69251 252.384 
L 142.797001 252.352 
L 143.110475 251.904 
L 143.423949 251.648 
L 143.632932 250.688 
L 143.946406 249.408 
L 144.050897 249.44 
L 144.155389 249.216 
L 144.364371 249.728 
L 144.782337 252.768 
L 145.618267 262.208 
L 145.82725 263.008 
L 146.036233 263.392 
L 146.349707 263.84 
L 146.558689 263.52 
L 146.767672 262.752 
L 146.976654 262.688 
L 147.081146 262.816 
L 147.185637 262.72 
L 147.708094 263.648 
L 147.812585 263.68 
L 148.648516 267.04 
L 148.857498 267.36 
L 149.170972 267.744 
L 149.275464 267.776 
L 149.379955 267.968 
L 149.693429 267.744 
L 149.902412 267.936 
L 150.320377 270.144 
L 150.738342 271.872 
L 150.947325 272.832 
L 151.574273 276.352 
L 152.410203 278.112 
L 152.619186 277.856 
L 152.828169 277.536 
L 153.037151 277.536 
L 153.350625 278.24 
L 153.873082 280.064 
L 154.395539 282.272 
L 156.171891 287.488 
L 156.380874 288.032 
L 157.007822 288.512 
L 157.321296 287.936 
L 158.157226 285.216 
L 158.4707 284.64 
L 158.575192 284.544 
L 158.888665 284.8 
L 159.515613 285.088 
L 159.933579 285.92 
L 161.187475 288.48 
L 161.814423 288.864 
L 162.023405 288.64 
L 162.232388 288.032 
L 162.545862 287.36 
L 163.17281 286.88 
L 163.381792 287.072 
L 163.695266 288 
L 164.113232 289.216 
L 164.635688 289.696 
L 165.158145 289.12 
L 165.889584 287.456 
L 166.830006 288.448 
L 167.352463 289.6 
L 167.561445 289.6 
L 167.770428 289.28 
L 168.083902 288.864 
L 168.292885 288.608 
L 168.71085 287.936 
L 168.919833 287.744 
L 169.024324 287.744 
L 169.233307 288.256 
L 169.755763 289.824 
L 170.696185 290.848 
L 171.323133 291.136 
L 171.950081 291.744 
L 172.159064 291.456 
L 172.472538 290.784 
L 172.786012 290.56 
L 172.890503 290.496 
L 173.308468 289.248 
L 173.830925 287.776 
L 174.666855 286.112 
L 174.771347 286.048 
L 174.875838 286.144 
L 176.338717 289.952 
L 176.652191 289.6 
L 177.801595 286.88 
L 178.115069 286.336 
L 178.219561 286.304 
L 178.533034 286.656 
L 179.473456 289.088 
L 179.891422 288.8 
L 181.772266 284.928 
L 181.981248 284.864 
L 182.190231 285.12 
L 182.503705 285.504 
L 182.712687 285.44 
L 182.92167 285.184 
L 183.339635 285.408 
L 183.757601 285.024 
L 184.071075 284.608 
L 184.280057 285.088 
L 184.593531 285.888 
L 184.907005 285.6 
L 185.115988 285.312 
L 185.429462 285.632 
L 185.742936 285.984 
L 186.160901 285.568 
L 186.89234 285.984 
L 187.205814 285.568 
L 187.414797 285.664 
L 188.564202 288.352 
L 188.982167 289.312 
L 189.818098 290.176 
L 190.02708 290.176 
L 190.654028 289.472 
L 190.967502 289.216 
L 191.698941 289.984 
L 192.639363 292.32 
L 193.266311 292.8 
L 193.579785 292.384 
L 195.878594 287.648 
L 196.192068 287.904 
L 196.819016 289.376 
L 197.445964 290.176 
L 198.177404 290.912 
L 198.595369 291.744 
L 198.804351 291.872 
L 199.013334 291.648 
L 200.26723 289.504 
L 200.476213 289.44 
L 201.312143 288.8 
L 201.521126 288.832 
L 201.730109 288.992 
L 202.043583 288.736 
L 202.357056 288.448 
L 202.67053 288.928 
L 203.088496 289.632 
L 204.446883 290.592 
L 204.864848 291.392 
L 205.282814 292.224 
L 205.596288 292.288 
L 206.014253 292.416 
L 207.059166 294.208 
L 207.477131 294.912 
L 208.208571 295.456 
L 208.313062 295.488 
L 208.313062 295.488 
" style="fill:none;stroke:#ff7f0e;stroke-linecap:square;stroke-width:1.5;"/>
   </g>
   <g id="line2d_17">
    <path clip-path="url(#p47c96ca209)" d="M 73.832727 294.912 
L 74.146201 292 
L 74.668658 284.032 
L 75.191114 273.536 
L 75.818062 261.024 
L 76.549502 249.728 
L 76.967467 243.52 
L 77.17645 242.048 
L 77.698906 234.848 
L 78.01238 230.944 
L 78.325854 228.704 
L 79.057294 220.192 
L 79.370767 218.24 
L 79.997715 212.096 
L 80.311189 211.424 
L 81.356103 206.944 
L 81.669577 204.704 
L 82.087542 201.792 
L 82.401016 198.208 
L 82.818981 194.272 
L 83.445929 192.448 
L 83.654912 192.448 
L 83.863894 193.44 
L 84.177368 195.488 
L 84.595334 197.216 
L 84.699825 197.184 
L 85.11779 198.208 
L 85.222282 198.208 
L 85.535756 197.408 
L 86.162704 190.784 
L 86.894143 182.208 
L 87.207617 180.896 
L 87.416599 180.928 
L 87.521091 181.152 
L 87.730073 180.672 
L 87.834565 180.736 
L 88.357021 182.528 
L 88.461513 182.432 
L 88.670495 180.768 
L 89.297443 174.176 
L 89.715409 172.608 
L 89.8199 172.608 
L 90.133374 173.984 
L 90.446848 178.432 
L 90.864813 182.592 
L 91.073796 182.752 
L 91.282778 182.208 
L 91.38727 182.304 
L 91.700744 184.16 
L 91.805235 184.32 
L 91.909726 184.8 
L 92.014218 184.736 
L 92.2232 183.872 
L 92.536674 182.592 
L 92.745657 181.408 
L 93.163622 174.272 
L 93.477096 168.8 
L 93.581588 168.512 
L 93.79057 169.568 
L 94.104044 171.52 
L 94.417518 175.52 
L 94.835484 180.832 
L 95.044466 181.568 
L 95.253449 181.376 
L 95.566923 182.208 
L 95.671414 181.984 
L 95.880397 180.64 
L 96.193871 178.784 
L 96.611836 177.984 
L 96.820819 176.544 
L 97.238784 171.488 
L 97.761241 168.448 
L 98.074715 166.08 
L 98.283697 164.8 
L 98.597171 163.744 
L 98.806154 163.712 
L 98.910645 163.264 
L 99.32861 158.592 
L 99.537593 156.384 
L 99.746576 155.584 
L 99.851067 155.744 
L 99.955558 156.128 
L 100.89598 163.808 
L 101.104963 163.104 
L 101.836402 158.272 
L 102.149876 157.824 
L 102.254368 157.856 
L 102.46335 157.12 
L 103.090298 155.232 
L 103.194789 155.392 
L 103.612755 154.464 
L 103.717246 154.56 
L 104.448685 157.76 
L 104.866651 156.896 
L 105.075633 157.088 
L 105.180125 156.704 
L 105.284616 156.768 
L 105.493599 157.6 
L 105.807073 158.56 
L 105.911564 158.592 
L 106.120547 159.104 
L 106.329529 158.752 
L 106.434021 158.4 
L 106.643003 158.496 
L 107.060968 155.072 
L 107.478934 150.976 
L 107.687916 150.624 
L 107.896899 151.104 
L 108.00139 150.88 
L 108.105882 151.008 
L 108.314864 152.384 
L 108.523847 152.928 
L 108.837321 155.072 
L 108.941812 155.04 
L 109.046304 154.752 
L 109.255286 153.024 
L 110.091217 142.912 
L 110.404691 139.936 
L 110.613674 138.752 
L 110.718165 139.264 
L 110.927147 142.592 
L 111.449604 151.744 
L 112.599009 164.96 
L 113.016974 167.744 
L 113.225957 169.248 
L 113.434939 169.472 
L 113.748413 169.696 
L 113.852905 169.568 
L 114.061887 168.896 
L 114.27087 168.672 
L 114.479853 168.736 
L 114.584344 168.896 
L 114.793327 170.048 
L 114.897818 170.08 
L 115.1068 169.504 
L 115.524766 169.568 
L 115.629257 169.28 
L 115.733748 169.376 
L 115.83824 169.12 
L 116.256205 166.112 
L 116.360696 166.144 
L 116.465188 166.112 
L 116.987644 164.384 
L 117.196627 164.224 
L 117.40561 165.632 
L 118.032558 171.712 
L 118.868488 179.968 
L 119.80891 188.96 
L 120.331367 196.896 
L 120.749332 201.728 
L 121.167297 204.096 
L 121.37628 205.856 
L 121.689754 209.216 
L 122.316702 214.72 
L 122.839158 220.352 
L 123.257124 222.08 
L 123.361615 222.112 
L 123.466106 221.984 
L 123.988563 224.928 
L 125.242459 239.168 
L 125.451442 239.808 
L 125.869407 238.592 
L 126.07839 239.712 
L 126.496355 244.256 
L 127.227794 253.568 
L 127.541268 255.008 
L 127.645759 255.136 
L 128.063725 256.32 
L 128.272707 256.192 
L 128.377199 256.48 
L 128.586181 256.448 
L 128.690673 256.448 
L 129.526603 258.624 
L 129.735586 259.936 
L 130.362534 264.896 
L 130.676008 266.432 
L 130.780499 266.528 
L 131.407447 264.544 
L 131.511938 264.416 
L 131.61643 264.544 
L 131.825412 264.032 
L 132.45236 262.336 
L 132.661343 262.656 
L 133.392782 264.704 
L 133.706256 264.768 
L 134.228713 264.992 
L 134.646678 264.256 
L 134.855661 264.992 
L 135.064643 266.208 
L 135.691591 272.128 
L 136.423031 279.04 
L 136.736505 280.416 
L 136.945487 280.608 
L 137.15447 280.448 
L 137.363453 279.776 
L 137.781418 278.336 
L 138.094892 277.984 
L 138.512857 278.016 
L 138.72184 277.792 
L 139.244296 278.88 
L 139.55777 279.84 
L 139.766753 280.416 
L 140.602684 284.768 
L 141.020649 286.272 
L 141.12514 286.368 
L 141.334123 286.112 
L 141.647597 285.376 
L 142.065562 283.904 
L 142.797001 280.512 
L 143.005984 279.584 
L 143.632932 276.416 
L 143.946406 275.136 
L 144.364371 274.144 
L 144.782337 274.208 
L 144.886828 274.112 
L 145.200302 274.72 
L 145.513776 276.096 
L 146.140724 280.032 
L 146.976654 284.064 
L 147.499111 285.728 
L 147.917076 287.232 
L 148.335042 287.584 
L 148.544024 287.488 
L 148.753007 287.328 
L 148.96199 287.232 
L 149.275464 287.84 
L 150.738342 294.464 
L 151.156307 294.976 
L 151.992238 295.488 
L 151.992238 295.488 
" style="fill:none;stroke:#2ca02c;stroke-linecap:square;stroke-width:1.5;"/>
   </g>
   <g id="line2d_18">
    <path clip-path="url(#p47c96ca209)" d="M 73.832727 294.912 
L 74.146201 292 
L 74.668658 284.032 
L 75.191114 273.536 
L 75.818062 261.024 
L 76.549502 249.728 
L 76.967467 243.52 
L 77.17645 242.048 
L 77.698906 234.848 
L 78.01238 230.944 
L 78.325854 228.704 
L 79.057294 220.192 
L 79.370767 218.24 
L 79.997715 212.096 
L 80.311189 211.424 
L 81.356103 206.944 
L 81.669577 204.704 
L 82.087542 201.792 
L 82.401016 198.208 
L 82.818981 194.272 
L 83.445929 192.448 
L 83.654912 192.448 
L 83.863894 193.44 
L 84.177368 195.488 
L 84.595334 197.216 
L 84.699825 197.184 
L 85.11779 198.208 
L 85.222282 198.208 
L 85.535756 197.408 
L 86.162704 190.784 
L 86.894143 182.208 
L 87.207617 180.896 
L 87.416599 180.928 
L 87.521091 181.152 
L 87.730073 180.672 
L 87.834565 180.736 
L 88.357021 182.528 
L 88.461513 182.432 
L 88.670495 180.768 
L 89.297443 174.176 
L 89.715409 172.608 
L 89.8199 172.608 
L 90.133374 173.984 
L 90.446848 178.432 
L 90.864813 182.592 
L 91.073796 182.752 
L 91.282778 182.208 
L 91.38727 182.304 
L 91.700744 184.16 
L 91.805235 184.32 
L 91.909726 184.8 
L 92.014218 184.736 
L 92.2232 183.872 
L 92.536674 182.592 
L 92.745657 181.408 
L 93.163622 174.272 
L 93.477096 168.8 
L 93.581588 168.512 
L 93.79057 169.568 
L 94.104044 171.52 
L 94.417518 175.52 
L 94.835484 180.832 
L 95.044466 181.568 
L 95.253449 181.376 
L 95.566923 182.208 
L 95.671414 181.984 
L 95.880397 180.64 
L 96.193871 178.784 
L 96.611836 177.984 
L 96.820819 176.544 
L 97.238784 171.488 
L 97.761241 168.448 
L 98.074715 166.08 
L 98.283697 164.8 
L 98.597171 163.744 
L 98.806154 163.712 
L 98.910645 163.264 
L 99.32861 158.592 
L 99.537593 156.384 
L 99.746576 155.584 
L 99.851067 155.744 
L 99.955558 156.128 
L 100.89598 163.616 
L 101.104963 163.552 
L 101.209454 163.648 
L 101.418437 164.32 
L 101.522928 163.936 
L 101.62742 164.064 
L 102.045385 166.848 
L 102.46335 174.4 
L 102.776824 178.784 
L 103.090298 181.216 
L 103.821737 185.856 
L 103.926229 185.952 
L 104.03072 185.76 
L 104.448685 187.2 
L 105.180125 190.688 
L 105.389107 192.48 
L 106.120547 204.064 
L 107.792408 223.136 
L 108.628338 235.808 
L 108.837321 237.216 
L 109.046304 237.568 
L 109.150795 237.28 
L 109.359778 237.312 
L 109.56876 237.28 
L 109.777743 238.688 
L 111.13613 254.592 
L 111.763078 259.488 
L 113.539431 276.448 
L 114.479853 281.376 
L 114.897818 282.944 
L 115.524766 285.152 
L 116.047222 286.336 
L 116.360696 286.336 
L 116.569679 286.176 
L 116.778662 286.272 
L 116.987644 286.496 
L 117.40561 286.592 
L 117.719084 286.336 
L 118.555014 286.944 
L 118.868488 287.424 
L 119.286453 289.056 
L 120.017893 291.84 
L 120.435858 292.288 
L 121.271789 291.552 
L 121.480771 291.776 
L 122.107719 293.376 
L 122.839158 294.912 
L 123.048141 294.976 
L 123.466106 294.816 
L 123.884072 294.912 
L 124.197546 294.912 
L 125.242459 294.528 
L 125.555933 294.336 
L 125.869407 294.432 
L 126.600846 294.752 
L 127.436777 294.592 
L 127.750251 294.688 
L 129.004147 295.488 
L 129.004147 295.488 
" style="fill:none;stroke:#d62728;stroke-linecap:square;stroke-width:1.5;"/>
   </g>
   <g id="line2d_19">
    <path clip-path="url(#p47c96ca209)" d="M 100.478015 307.584 
L 100.478015 41.472 
" style="fill:none;stroke:#bfbf00;stroke-linecap:square;stroke-width:1.5;"/>
   </g>
   <g id="line2d_20">
    <path clip-path="url(#p47c96ca209)" d="M 57.6 53.568 
L 414.72 53.568 
" style="fill:none;stroke:#ff0000;stroke-linecap:square;stroke-width:1.5;"/>
   </g>
   <g id="line2d_21">
    <path clip-path="url(#p47c96ca209)" d="M 57.6 259.2 
L 414.72 259.2 
" style="fill:none;stroke:#008000;stroke-linecap:square;stroke-width:1.5;"/>
   </g>
   <g id="line2d_22">
    <path clip-path="url(#p47c96ca209)" d="M 57.6 291.8592 
L 414.72 291.8592 
" style="fill:none;stroke:#0000ff;stroke-linecap:square;stroke-width:1.5;"/>
   </g>
   <g id="patch_3">
    <path d="M 57.6 307.584 
L 57.6 41.472 
" style="fill:none;stroke:#000000;stroke-linecap:square;stroke-linejoin:miter;stroke-width:0.8;"/>
   </g>
   <g id="patch_4">
    <path d="M 414.72 307.584 
L 414.72 41.472 
" style="fill:none;stroke:#000000;stroke-linecap:square;stroke-linejoin:miter;stroke-width:0.8;"/>
   </g>
   <g id="patch_5">
    <path d="M 57.6 307.584 
L 414.72 307.584 
" style="fill:none;stroke:#000000;stroke-linecap:square;stroke-linejoin:miter;stroke-width:0.8;"/>
   </g>
   <g id="patch_6">
    <path d="M 57.6 41.472 
L 414.72 41.472 
" style="fill:none;stroke:#000000;stroke-linecap:square;stroke-linejoin:miter;stroke-width:0.8;"/>
   </g>
   <g id="text_17">
    <!-- Percentage of population infected for different vaccination rates -->
    <defs>
     <path d="M 2.984375 54.6875 
L 12.5 54.6875 
L 29.59375 8.796875 
L 46.6875 54.6875 
L 56.203125 54.6875 
L 35.6875 0 
L 23.484375 0 
z
" id="DejaVuSans-118"/>
    </defs>
    <g transform="translate(43.328438 35.472)scale(0.12 -0.12)">
     <use xlink:href="#DejaVuSans-80"/>
     <use x="56.677734" xlink:href="#DejaVuSans-101"/>
     <use x="118.201172" xlink:href="#DejaVuSans-114"/>
     <use x="157.064453" xlink:href="#DejaVuSans-99"/>
     <use x="212.044922" xlink:href="#DejaVuSans-101"/>
     <use x="273.568359" xlink:href="#DejaVuSans-110"/>
     <use x="336.947266" xlink:href="#DejaVuSans-116"/>
     <use x="376.15625" xlink:href="#DejaVuSans-97"/>
     <use x="437.435547" xlink:href="#DejaVuSans-103"/>
     <use x="500.912109" xlink:href="#DejaVuSans-101"/>
     <use x="562.435547" xlink:href="#DejaVuSans-32"/>
     <use x="594.222656" xlink:href="#DejaVuSans-111"/>
     <use x="655.404297" xlink:href="#DejaVuSans-102"/>
     <use x="690.609375" xlink:href="#DejaVuSans-32"/>
     <use x="722.396484" xlink:href="#DejaVuSans-112"/>
     <use x="785.873047" xlink:href="#DejaVuSans-111"/>
     <use x="847.054688" xlink:href="#DejaVuSans-112"/>
     <use x="910.53125" xlink:href="#DejaVuSans-117"/>
     <use x="973.910156" xlink:href="#DejaVuSans-108"/>
     <use x="1001.693359" xlink:href="#DejaVuSans-97"/>
     <use x="1062.972656" xlink:href="#DejaVuSans-116"/>
     <use x="1102.181641" xlink:href="#DejaVuSans-105"/>
     <use x="1129.964844" xlink:href="#DejaVuSans-111"/>
     <use x="1191.146484" xlink:href="#DejaVuSans-110"/>
     <use x="1254.525391" xlink:href="#DejaVuSans-32"/>
     <use x="1286.3125" xlink:href="#DejaVuSans-105"/>
     <use x="1314.095703" xlink:href="#DejaVuSans-110"/>
     <use x="1377.474609" xlink:href="#DejaVuSans-102"/>
     <use x="1412.679688" xlink:href="#DejaVuSans-101"/>
     <use x="1474.203125" xlink:href="#DejaVuSans-99"/>
     <use x="1529.183594" xlink:href="#DejaVuSans-116"/>
     <use x="1568.392578" xlink:href="#DejaVuSans-101"/>
     <use x="1629.916016" xlink:href="#DejaVuSans-100"/>
     <use x="1693.392578" xlink:href="#DejaVuSans-32"/>
     <use x="1725.179688" xlink:href="#DejaVuSans-102"/>
     <use x="1760.384766" xlink:href="#DejaVuSans-111"/>
     <use x="1821.566406" xlink:href="#DejaVuSans-114"/>
     <use x="1862.679688" xlink:href="#DejaVuSans-32"/>
     <use x="1894.466797" xlink:href="#DejaVuSans-100"/>
     <use x="1957.943359" xlink:href="#DejaVuSans-105"/>
     <use x="1985.726562" xlink:href="#DejaVuSans-102"/>
     <use x="2020.931641" xlink:href="#DejaVuSans-102"/>
     <use x="2056.136719" xlink:href="#DejaVuSans-101"/>
     <use x="2117.660156" xlink:href="#DejaVuSans-114"/>
     <use x="2156.523438" xlink:href="#DejaVuSans-101"/>
     <use x="2218.046875" xlink:href="#DejaVuSans-110"/>
     <use x="2281.425781" xlink:href="#DejaVuSans-116"/>
     <use x="2320.634766" xlink:href="#DejaVuSans-32"/>
     <use x="2352.421875" xlink:href="#DejaVuSans-118"/>
     <use x="2411.601562" xlink:href="#DejaVuSans-97"/>
     <use x="2472.880859" xlink:href="#DejaVuSans-99"/>
     <use x="2527.861328" xlink:href="#DejaVuSans-99"/>
     <use x="2582.841797" xlink:href="#DejaVuSans-105"/>
     <use x="2610.625" xlink:href="#DejaVuSans-110"/>
     <use x="2674.003906" xlink:href="#DejaVuSans-97"/>
     <use x="2735.283203" xlink:href="#DejaVuSans-116"/>
     <use x="2774.492188" xlink:href="#DejaVuSans-105"/>
     <use x="2802.275391" xlink:href="#DejaVuSans-111"/>
     <use x="2863.457031" xlink:href="#DejaVuSans-110"/>
     <use x="2926.835938" xlink:href="#DejaVuSans-32"/>
     <use x="2958.623047" xlink:href="#DejaVuSans-114"/>
     <use x="2999.736328" xlink:href="#DejaVuSans-97"/>
     <use x="3061.015625" xlink:href="#DejaVuSans-116"/>
     <use x="3100.224609" xlink:href="#DejaVuSans-101"/>
     <use x="3161.748047" xlink:href="#DejaVuSans-115"/>
    </g>
   </g>
   <g id="legend_1">
    <g id="patch_7">
     <path d="M 226.827812 234.7405 
L 407.72 234.7405 
Q 409.72 234.7405 409.72 232.7405 
L 409.72 116.3155 
Q 409.72 114.3155 407.72 114.3155 
L 226.827812 114.3155 
Q 224.827812 114.3155 224.827812 116.3155 
L 224.827812 232.7405 
Q 224.827812 234.7405 226.827812 234.7405 
z
" style="fill:#ffffff;opacity:0.8;stroke:#cccccc;stroke-linejoin:miter;"/>
    </g>
    <g id="line2d_23">
     <path d="M 228.827812 122.413938 
L 248.827812 122.413938 
" style="fill:none;stroke:#1f77b4;stroke-linecap:square;stroke-width:1.5;"/>
    </g>
    <g id="line2d_24"/>
    <g id="text_18">
     <!-- 0 % per day -->
     <defs>
      <path d="M 72.703125 32.078125 
Q 68.453125 32.078125 66.03125 28.46875 
Q 63.625 24.859375 63.625 18.40625 
Q 63.625 12.0625 66.03125 8.421875 
Q 68.453125 4.78125 72.703125 4.78125 
Q 76.859375 4.78125 79.265625 8.421875 
Q 81.6875 12.0625 81.6875 18.40625 
Q 81.6875 24.8125 79.265625 28.4375 
Q 76.859375 32.078125 72.703125 32.078125 
z
M 72.703125 38.28125 
Q 80.421875 38.28125 84.953125 32.90625 
Q 89.5 27.546875 89.5 18.40625 
Q 89.5 9.28125 84.9375 3.921875 
Q 80.375 -1.421875 72.703125 -1.421875 
Q 64.890625 -1.421875 60.34375 3.921875 
Q 55.8125 9.28125 55.8125 18.40625 
Q 55.8125 27.59375 60.375 32.9375 
Q 64.9375 38.28125 72.703125 38.28125 
z
M 22.3125 68.015625 
Q 18.109375 68.015625 15.6875 64.375 
Q 13.28125 60.75 13.28125 54.390625 
Q 13.28125 47.953125 15.671875 44.328125 
Q 18.0625 40.71875 22.3125 40.71875 
Q 26.5625 40.71875 28.96875 44.328125 
Q 31.390625 47.953125 31.390625 54.390625 
Q 31.390625 60.6875 28.953125 64.34375 
Q 26.515625 68.015625 22.3125 68.015625 
z
M 66.40625 74.21875 
L 74.21875 74.21875 
L 28.609375 -1.421875 
L 20.796875 -1.421875 
z
M 22.3125 74.21875 
Q 30.03125 74.21875 34.609375 68.875 
Q 39.203125 63.53125 39.203125 54.390625 
Q 39.203125 45.171875 34.640625 39.84375 
Q 30.078125 34.515625 22.3125 34.515625 
Q 14.546875 34.515625 10.03125 39.859375 
Q 5.515625 45.21875 5.515625 54.390625 
Q 5.515625 63.484375 10.046875 68.84375 
Q 14.59375 74.21875 22.3125 74.21875 
z
" id="DejaVuSans-37"/>
     </defs>
     <g transform="translate(256.827812 125.913938)scale(0.1 -0.1)">
      <use xlink:href="#DejaVuSans-48"/>
      <use x="63.623047" xlink:href="#DejaVuSans-32"/>
      <use x="95.410156" xlink:href="#DejaVuSans-37"/>
      <use x="190.429688" xlink:href="#DejaVuSans-32"/>
      <use x="222.216797" xlink:href="#DejaVuSans-112"/>
      <use x="285.693359" xlink:href="#DejaVuSans-101"/>
      <use x="347.216797" xlink:href="#DejaVuSans-114"/>
      <use x="388.330078" xlink:href="#DejaVuSans-32"/>
      <use x="420.117188" xlink:href="#DejaVuSans-100"/>
      <use x="483.59375" xlink:href="#DejaVuSans-97"/>
      <use x="544.873047" xlink:href="#DejaVuSans-121"/>
     </g>
    </g>
    <g id="line2d_25">
     <path d="M 228.827812 137.092062 
L 248.827812 137.092062 
" style="fill:none;stroke:#ff7f0e;stroke-linecap:square;stroke-width:1.5;"/>
    </g>
    <g id="line2d_26"/>
    <g id="text_19">
     <!-- 0.01 % per day -->
     <g transform="translate(256.827812 140.592062)scale(0.1 -0.1)">
      <use xlink:href="#DejaVuSans-48"/>
      <use x="63.623047" xlink:href="#DejaVuSans-46"/>
      <use x="95.410156" xlink:href="#DejaVuSans-48"/>
      <use x="159.033203" xlink:href="#DejaVuSans-49"/>
      <use x="222.65625" xlink:href="#DejaVuSans-32"/>
      <use x="254.443359" xlink:href="#DejaVuSans-37"/>
      <use x="349.462891" xlink:href="#DejaVuSans-32"/>
      <use x="381.25" xlink:href="#DejaVuSans-112"/>
      <use x="444.726562" xlink:href="#DejaVuSans-101"/>
      <use x="506.25" xlink:href="#DejaVuSans-114"/>
      <use x="547.363281" xlink:href="#DejaVuSans-32"/>
      <use x="579.150391" xlink:href="#DejaVuSans-100"/>
      <use x="642.626953" xlink:href="#DejaVuSans-97"/>
      <use x="703.90625" xlink:href="#DejaVuSans-121"/>
     </g>
    </g>
    <g id="line2d_27">
     <path d="M 228.827812 151.770188 
L 248.827812 151.770188 
" style="fill:none;stroke:#2ca02c;stroke-linecap:square;stroke-width:1.5;"/>
    </g>
    <g id="line2d_28"/>
    <g id="text_20">
     <!-- 0.03 % per day -->
     <g transform="translate(256.827812 155.270188)scale(0.1 -0.1)">
      <use xlink:href="#DejaVuSans-48"/>
      <use x="63.623047" xlink:href="#DejaVuSans-46"/>
      <use x="95.410156" xlink:href="#DejaVuSans-48"/>
      <use x="159.033203" xlink:href="#DejaVuSans-51"/>
      <use x="222.65625" xlink:href="#DejaVuSans-32"/>
      <use x="254.443359" xlink:href="#DejaVuSans-37"/>
      <use x="349.462891" xlink:href="#DejaVuSans-32"/>
      <use x="381.25" xlink:href="#DejaVuSans-112"/>
      <use x="444.726562" xlink:href="#DejaVuSans-101"/>
      <use x="506.25" xlink:href="#DejaVuSans-114"/>
      <use x="547.363281" xlink:href="#DejaVuSans-32"/>
      <use x="579.150391" xlink:href="#DejaVuSans-100"/>
      <use x="642.626953" xlink:href="#DejaVuSans-97"/>
      <use x="703.90625" xlink:href="#DejaVuSans-121"/>
     </g>
    </g>
    <g id="line2d_29">
     <path d="M 228.827812 166.448313 
L 248.827812 166.448313 
" style="fill:none;stroke:#d62728;stroke-linecap:square;stroke-width:1.5;"/>
    </g>
    <g id="line2d_30"/>
    <g id="text_21">
     <!-- 0.2 % per day -->
     <g transform="translate(256.827812 169.948313)scale(0.1 -0.1)">
      <use xlink:href="#DejaVuSans-48"/>
      <use x="63.623047" xlink:href="#DejaVuSans-46"/>
      <use x="95.410156" xlink:href="#DejaVuSans-50"/>
      <use x="159.033203" xlink:href="#DejaVuSans-32"/>
      <use x="190.820312" xlink:href="#DejaVuSans-37"/>
      <use x="285.839844" xlink:href="#DejaVuSans-32"/>
      <use x="317.626953" xlink:href="#DejaVuSans-112"/>
      <use x="381.103516" xlink:href="#DejaVuSans-101"/>
      <use x="442.626953" xlink:href="#DejaVuSans-114"/>
      <use x="483.740234" xlink:href="#DejaVuSans-32"/>
      <use x="515.527344" xlink:href="#DejaVuSans-100"/>
      <use x="579.003906" xlink:href="#DejaVuSans-97"/>
      <use x="640.283203" xlink:href="#DejaVuSans-121"/>
     </g>
    </g>
    <g id="line2d_31">
     <path d="M 228.827812 181.126438 
L 248.827812 181.126438 
" style="fill:none;stroke:#bfbf00;stroke-linecap:square;stroke-width:1.5;"/>
    </g>
    <g id="line2d_32"/>
    <g id="text_22">
     <!-- Vaccination starts -->
     <defs>
      <path d="M 28.609375 0 
L 0.78125 72.90625 
L 11.078125 72.90625 
L 34.1875 11.53125 
L 57.328125 72.90625 
L 67.578125 72.90625 
L 39.796875 0 
z
" id="DejaVuSans-86"/>
     </defs>
     <g transform="translate(256.827812 184.626438)scale(0.1 -0.1)">
      <use xlink:href="#DejaVuSans-86"/>
      <use x="60.658203" xlink:href="#DejaVuSans-97"/>
      <use x="121.9375" xlink:href="#DejaVuSans-99"/>
      <use x="176.917969" xlink:href="#DejaVuSans-99"/>
      <use x="231.898438" xlink:href="#DejaVuSans-105"/>
      <use x="259.681641" xlink:href="#DejaVuSans-110"/>
      <use x="323.060547" xlink:href="#DejaVuSans-97"/>
      <use x="384.339844" xlink:href="#DejaVuSans-116"/>
      <use x="423.548828" xlink:href="#DejaVuSans-105"/>
      <use x="451.332031" xlink:href="#DejaVuSans-111"/>
      <use x="512.513672" xlink:href="#DejaVuSans-110"/>
      <use x="575.892578" xlink:href="#DejaVuSans-32"/>
      <use x="607.679688" xlink:href="#DejaVuSans-115"/>
      <use x="659.779297" xlink:href="#DejaVuSans-116"/>
      <use x="698.988281" xlink:href="#DejaVuSans-97"/>
      <use x="760.267578" xlink:href="#DejaVuSans-114"/>
      <use x="801.380859" xlink:href="#DejaVuSans-116"/>
      <use x="840.589844" xlink:href="#DejaVuSans-115"/>
     </g>
    </g>
    <g id="line2d_33">
     <path d="M 228.827812 195.804563 
L 248.827812 195.804563 
" style="fill:none;stroke:#ff0000;stroke-linecap:square;stroke-width:1.5;"/>
    </g>
    <g id="line2d_34"/>
    <g id="text_23">
     <!-- Healthcare threshold -->
     <defs>
      <path d="M 9.8125 72.90625 
L 19.671875 72.90625 
L 19.671875 43.015625 
L 55.515625 43.015625 
L 55.515625 72.90625 
L 65.375 72.90625 
L 65.375 0 
L 55.515625 0 
L 55.515625 34.71875 
L 19.671875 34.71875 
L 19.671875 0 
L 9.8125 0 
z
" id="DejaVuSans-72"/>
      <path d="M 54.890625 33.015625 
L 54.890625 0 
L 45.90625 0 
L 45.90625 32.71875 
Q 45.90625 40.484375 42.875 44.328125 
Q 39.84375 48.1875 33.796875 48.1875 
Q 26.515625 48.1875 22.3125 43.546875 
Q 18.109375 38.921875 18.109375 30.90625 
L 18.109375 0 
L 9.078125 0 
L 9.078125 75.984375 
L 18.109375 75.984375 
L 18.109375 46.1875 
Q 21.34375 51.125 25.703125 53.5625 
Q 30.078125 56 35.796875 56 
Q 45.21875 56 50.046875 50.171875 
Q 54.890625 44.34375 54.890625 33.015625 
z
" id="DejaVuSans-104"/>
     </defs>
     <g transform="translate(256.827812 199.304563)scale(0.1 -0.1)">
      <use xlink:href="#DejaVuSans-72"/>
      <use x="75.195312" xlink:href="#DejaVuSans-101"/>
      <use x="136.71875" xlink:href="#DejaVuSans-97"/>
      <use x="197.998047" xlink:href="#DejaVuSans-108"/>
      <use x="225.78125" xlink:href="#DejaVuSans-116"/>
      <use x="264.990234" xlink:href="#DejaVuSans-104"/>
      <use x="328.369141" xlink:href="#DejaVuSans-99"/>
      <use x="383.349609" xlink:href="#DejaVuSans-97"/>
      <use x="444.628906" xlink:href="#DejaVuSans-114"/>
      <use x="483.492188" xlink:href="#DejaVuSans-101"/>
      <use x="545.015625" xlink:href="#DejaVuSans-32"/>
      <use x="576.802734" xlink:href="#DejaVuSans-116"/>
      <use x="616.011719" xlink:href="#DejaVuSans-104"/>
      <use x="679.390625" xlink:href="#DejaVuSans-114"/>
      <use x="718.253906" xlink:href="#DejaVuSans-101"/>
      <use x="779.777344" xlink:href="#DejaVuSans-115"/>
      <use x="831.876953" xlink:href="#DejaVuSans-104"/>
      <use x="895.255859" xlink:href="#DejaVuSans-111"/>
      <use x="956.4375" xlink:href="#DejaVuSans-108"/>
      <use x="984.220703" xlink:href="#DejaVuSans-100"/>
     </g>
    </g>
    <g id="line2d_35">
     <path d="M 228.827812 210.482687 
L 248.827812 210.482687 
" style="fill:none;stroke:#008000;stroke-linecap:square;stroke-width:1.5;"/>
    </g>
    <g id="line2d_36"/>
    <g id="text_24">
     <!-- Lockdown imposing threshold -->
     <defs>
      <path d="M 9.8125 72.90625 
L 19.671875 72.90625 
L 19.671875 8.296875 
L 55.171875 8.296875 
L 55.171875 0 
L 9.8125 0 
z
" id="DejaVuSans-76"/>
      <path d="M 9.078125 75.984375 
L 18.109375 75.984375 
L 18.109375 31.109375 
L 44.921875 54.6875 
L 56.390625 54.6875 
L 27.390625 29.109375 
L 57.625 0 
L 45.90625 0 
L 18.109375 26.703125 
L 18.109375 0 
L 9.078125 0 
z
" id="DejaVuSans-107"/>
      <path d="M 4.203125 54.6875 
L 13.1875 54.6875 
L 24.421875 12.015625 
L 35.59375 54.6875 
L 46.1875 54.6875 
L 57.421875 12.015625 
L 68.609375 54.6875 
L 77.59375 54.6875 
L 63.28125 0 
L 52.6875 0 
L 40.921875 44.828125 
L 29.109375 0 
L 18.5 0 
z
" id="DejaVuSans-119"/>
      <path d="M 52 44.1875 
Q 55.375 50.25 60.0625 53.125 
Q 64.75 56 71.09375 56 
Q 79.640625 56 84.28125 50.015625 
Q 88.921875 44.046875 88.921875 33.015625 
L 88.921875 0 
L 79.890625 0 
L 79.890625 32.71875 
Q 79.890625 40.578125 77.09375 44.375 
Q 74.3125 48.1875 68.609375 48.1875 
Q 61.625 48.1875 57.5625 43.546875 
Q 53.515625 38.921875 53.515625 30.90625 
L 53.515625 0 
L 44.484375 0 
L 44.484375 32.71875 
Q 44.484375 40.625 41.703125 44.40625 
Q 38.921875 48.1875 33.109375 48.1875 
Q 26.21875 48.1875 22.15625 43.53125 
Q 18.109375 38.875 18.109375 30.90625 
L 18.109375 0 
L 9.078125 0 
L 9.078125 54.6875 
L 18.109375 54.6875 
L 18.109375 46.1875 
Q 21.1875 51.21875 25.484375 53.609375 
Q 29.78125 56 35.6875 56 
Q 41.65625 56 45.828125 52.96875 
Q 50 49.953125 52 44.1875 
z
" id="DejaVuSans-109"/>
     </defs>
     <g transform="translate(256.827812 213.982687)scale(0.1 -0.1)">
      <use xlink:href="#DejaVuSans-76"/>
      <use x="53.962891" xlink:href="#DejaVuSans-111"/>
      <use x="115.144531" xlink:href="#DejaVuSans-99"/>
      <use x="170.125" xlink:href="#DejaVuSans-107"/>
      <use x="228.035156" xlink:href="#DejaVuSans-100"/>
      <use x="291.511719" xlink:href="#DejaVuSans-111"/>
      <use x="352.693359" xlink:href="#DejaVuSans-119"/>
      <use x="434.480469" xlink:href="#DejaVuSans-110"/>
      <use x="497.859375" xlink:href="#DejaVuSans-32"/>
      <use x="529.646484" xlink:href="#DejaVuSans-105"/>
      <use x="557.429688" xlink:href="#DejaVuSans-109"/>
      <use x="654.841797" xlink:href="#DejaVuSans-112"/>
      <use x="718.318359" xlink:href="#DejaVuSans-111"/>
      <use x="779.5" xlink:href="#DejaVuSans-115"/>
      <use x="831.599609" xlink:href="#DejaVuSans-105"/>
      <use x="859.382812" xlink:href="#DejaVuSans-110"/>
      <use x="922.761719" xlink:href="#DejaVuSans-103"/>
      <use x="986.238281" xlink:href="#DejaVuSans-32"/>
      <use x="1018.025391" xlink:href="#DejaVuSans-116"/>
      <use x="1057.234375" xlink:href="#DejaVuSans-104"/>
      <use x="1120.613281" xlink:href="#DejaVuSans-114"/>
      <use x="1159.476562" xlink:href="#DejaVuSans-101"/>
      <use x="1221" xlink:href="#DejaVuSans-115"/>
      <use x="1273.099609" xlink:href="#DejaVuSans-104"/>
      <use x="1336.478516" xlink:href="#DejaVuSans-111"/>
      <use x="1397.660156" xlink:href="#DejaVuSans-108"/>
      <use x="1425.443359" xlink:href="#DejaVuSans-100"/>
     </g>
    </g>
    <g id="line2d_37">
     <path d="M 228.827812 225.160812 
L 248.827812 225.160812 
" style="fill:none;stroke:#0000ff;stroke-linecap:square;stroke-width:1.5;"/>
    </g>
    <g id="line2d_38"/>
    <g id="text_25">
     <!-- Lockdown lifting threshold -->
     <g transform="translate(256.827812 228.660812)scale(0.1 -0.1)">
      <use xlink:href="#DejaVuSans-76"/>
      <use x="53.962891" xlink:href="#DejaVuSans-111"/>
      <use x="115.144531" xlink:href="#DejaVuSans-99"/>
      <use x="170.125" xlink:href="#DejaVuSans-107"/>
      <use x="228.035156" xlink:href="#DejaVuSans-100"/>
      <use x="291.511719" xlink:href="#DejaVuSans-111"/>
      <use x="352.693359" xlink:href="#DejaVuSans-119"/>
      <use x="434.480469" xlink:href="#DejaVuSans-110"/>
      <use x="497.859375" xlink:href="#DejaVuSans-32"/>
      <use x="529.646484" xlink:href="#DejaVuSans-108"/>
      <use x="557.429688" xlink:href="#DejaVuSans-105"/>
      <use x="585.212891" xlink:href="#DejaVuSans-102"/>
      <use x="618.667969" xlink:href="#DejaVuSans-116"/>
      <use x="657.876953" xlink:href="#DejaVuSans-105"/>
      <use x="685.660156" xlink:href="#DejaVuSans-110"/>
      <use x="749.039062" xlink:href="#DejaVuSans-103"/>
      <use x="812.515625" xlink:href="#DejaVuSans-32"/>
      <use x="844.302734" xlink:href="#DejaVuSans-116"/>
      <use x="883.511719" xlink:href="#DejaVuSans-104"/>
      <use x="946.890625" xlink:href="#DejaVuSans-114"/>
      <use x="985.753906" xlink:href="#DejaVuSans-101"/>
      <use x="1047.277344" xlink:href="#DejaVuSans-115"/>
      <use x="1099.376953" xlink:href="#DejaVuSans-104"/>
      <use x="1162.755859" xlink:href="#DejaVuSans-111"/>
      <use x="1223.9375" xlink:href="#DejaVuSans-108"/>
      <use x="1251.720703" xlink:href="#DejaVuSans-100"/>
     </g>
    </g>
   </g>
  </g>
 </g>
 <defs>
  <clipPath id="p47c96ca209">
   <rect height="266.112" width="357.12" x="57.6" y="41.472"/>
  </clipPath>
 </defs>
</svg>
